<mxfile host="app.diagrams.net" modified="2021-05-31T02:02:12.764Z" agent="5.0 (Windows NT 10.0; Win64; x64) AppleWebKit/537.36 (KHTML, like Gecko) Chrome/90.0.4430.212 Safari/537.36" etag="-BFW2kXHYbxicJnhyR3I" version="14.7.3" type="github" pages="5">
  <diagram id="RRJzgpXoB9eDTU_erLDh" name="TOP">
    <mxGraphModel dx="1422" dy="762" grid="1" gridSize="10" guides="1" tooltips="1" connect="1" arrows="1" fold="1" page="1" pageScale="1" pageWidth="827" pageHeight="1169" math="0" shadow="0">
      <root>
        <mxCell id="0" />
        <mxCell id="1" parent="0" />
        <mxCell id="OFyryt8QDXvvuL8tCVyt-1" value="" style="whiteSpace=wrap;html=1;rounded=0;shadow=0;labelBackgroundColor=none;strokeColor=#000000;strokeWidth=1;fillColor=none;fontFamily=Verdana;fontSize=12;fontColor=#000000;align=center;comic=1;" vertex="1" parent="1">
          <mxGeometry x="20" y="10" width="1060" height="810" as="geometry" />
        </mxCell>
        <mxCell id="OFyryt8QDXvvuL8tCVyt-2" value="" style="whiteSpace=wrap;html=1;rounded=0;shadow=0;labelBackgroundColor=none;strokeColor=#000000;strokeWidth=1;fillColor=none;fontFamily=Verdana;fontSize=12;fontColor=#000000;align=center;comic=1;" vertex="1" parent="1">
          <mxGeometry x="20" y="10" width="1060" height="810" as="geometry" />
        </mxCell>
        <mxCell id="OFyryt8QDXvvuL8tCVyt-3" value="LOGO" style="whiteSpace=wrap;html=1;rounded=0;shadow=0;labelBackgroundColor=none;strokeWidth=1;fontFamily=Verdana;fontSize=28;align=center;comic=1;" vertex="1" parent="1">
          <mxGeometry x="40" y="60" width="190" height="50" as="geometry" />
        </mxCell>
        <mxCell id="OFyryt8QDXvvuL8tCVyt-4" value="" style="line;strokeWidth=1;html=1;rounded=0;shadow=0;labelBackgroundColor=none;fillColor=none;fontFamily=Verdana;fontSize=14;fontColor=#000000;align=center;comic=1;" vertex="1" parent="1">
          <mxGeometry x="20" y="140" width="1060" height="10" as="geometry" />
        </mxCell>
        <mxCell id="OFyryt8QDXvvuL8tCVyt-5" value="農作物" style="text;strokeColor=none;fillColor=none;html=1;fontSize=24;fontStyle=1;verticalAlign=middle;align=center;" vertex="1" parent="1">
          <mxGeometry x="85" y="266" width="145" height="54" as="geometry" />
        </mxCell>
        <mxCell id="OFyryt8QDXvvuL8tCVyt-6" value="&lt;font style=&quot;font-size: 14px&quot;&gt;さくらんぼ&lt;/font&gt;" style="rounded=1;html=1;shadow=0;dashed=0;whiteSpace=wrap;fontSize=10;fillColor=#999999;align=center;strokeColor=#666666;fontColor=#ffffff;strokeWidth=2;labelBackgroundColor=none;" vertex="1" parent="1">
          <mxGeometry x="150" y="340" width="120" height="40" as="geometry" />
        </mxCell>
        <mxCell id="OFyryt8QDXvvuL8tCVyt-7" value="シャインマスカット" style="rounded=1;html=1;shadow=0;dashed=0;whiteSpace=wrap;fontSize=11;fillColor=#999999;align=center;strokeColor=#666666;fontColor=#ffffff;strokeWidth=2;labelBackgroundColor=none;" vertex="1" parent="1">
          <mxGeometry x="150" y="405" width="120" height="40" as="geometry" />
        </mxCell>
        <mxCell id="OFyryt8QDXvvuL8tCVyt-8" value="&lt;font style=&quot;font-size: 14px&quot;&gt;梨&lt;/font&gt;" style="rounded=1;html=1;shadow=0;dashed=0;whiteSpace=wrap;fontSize=10;fillColor=#999999;align=center;strokeColor=#666666;fontColor=#ffffff;strokeWidth=2;labelBackgroundColor=none;" vertex="1" parent="1">
          <mxGeometry x="150" y="470" width="120" height="40" as="geometry" />
        </mxCell>
        <mxCell id="OFyryt8QDXvvuL8tCVyt-9" value="アスパラガス" style="rounded=1;html=1;shadow=0;dashed=0;whiteSpace=wrap;fontSize=12;fillColor=#999999;align=center;strokeColor=#666666;fontColor=#ffffff;strokeWidth=2;labelBackgroundColor=none;" vertex="1" parent="1">
          <mxGeometry x="150" y="540" width="120" height="40" as="geometry" />
        </mxCell>
      </root>
    </mxGraphModel>
  </diagram>
  <diagram id="BFsyF_GUhUfpljL3fLUB" name="予定表">
    <mxGraphModel dx="1422" dy="762" grid="1" gridSize="10" guides="1" tooltips="1" connect="1" arrows="1" fold="1" page="1" pageScale="1" pageWidth="827" pageHeight="1169" math="0" shadow="0">
      <root>
        <mxCell id="VeFfzqYJXBhpypY60JfP-0" />
        <mxCell id="VeFfzqYJXBhpypY60JfP-1" parent="VeFfzqYJXBhpypY60JfP-0" />
        <mxCell id="VeFfzqYJXBhpypY60JfP-2" value="" style="whiteSpace=wrap;html=1;rounded=0;shadow=0;labelBackgroundColor=none;strokeColor=#000000;strokeWidth=1;fillColor=none;fontFamily=Verdana;fontSize=12;fontColor=#000000;align=center;comic=1;" vertex="1" parent="VeFfzqYJXBhpypY60JfP-1">
          <mxGeometry x="20" y="20" width="1060" height="870" as="geometry" />
        </mxCell>
        <mxCell id="VeFfzqYJXBhpypY60JfP-3" value="LOGO" style="whiteSpace=wrap;html=1;rounded=0;shadow=0;labelBackgroundColor=none;strokeWidth=1;fontFamily=Verdana;fontSize=28;align=center;comic=1;" vertex="1" parent="VeFfzqYJXBhpypY60JfP-1">
          <mxGeometry x="40" y="60" width="190" height="50" as="geometry" />
        </mxCell>
        <mxCell id="VeFfzqYJXBhpypY60JfP-4" value="" style="line;strokeWidth=1;html=1;rounded=0;shadow=0;labelBackgroundColor=none;fillColor=none;fontFamily=Verdana;fontSize=14;fontColor=#000000;align=center;comic=1;" vertex="1" parent="VeFfzqYJXBhpypY60JfP-1">
          <mxGeometry x="20" y="140" width="1060" height="10" as="geometry" />
        </mxCell>
        <mxCell id="VeFfzqYJXBhpypY60JfP-5" value="" style="whiteSpace=wrap;html=1;rounded=0;shadow=0;labelBackgroundColor=none;strokeWidth=1;fillColor=none;fontFamily=Verdana;fontSize=12;align=center;comic=1;" vertex="1" parent="VeFfzqYJXBhpypY60JfP-1">
          <mxGeometry x="30" y="160" width="1040" height="50" as="geometry" />
        </mxCell>
        <mxCell id="VeFfzqYJXBhpypY60JfP-6" value="TOP画面" style="text;html=1;points=[];align=left;verticalAlign=top;spacingTop=-4;fontSize=14;fontFamily=Verdana" vertex="1" parent="VeFfzqYJXBhpypY60JfP-1">
          <mxGeometry x="980" y="175" width="60" height="20" as="geometry" />
        </mxCell>
        <mxCell id="VeFfzqYJXBhpypY60JfP-7" value="" style="strokeWidth=1;shadow=0;dashed=0;align=center;html=1;shape=mxgraph.mockup.forms.rrect;rSize=5;strokeColor=#999999;fillColor=#ffffff;labelBackgroundColor=none;fontSize=20;" vertex="1" parent="VeFfzqYJXBhpypY60JfP-1">
          <mxGeometry x="60" y="260" width="980" height="600" as="geometry" />
        </mxCell>
        <mxCell id="VeFfzqYJXBhpypY60JfP-8" value="&lt;h1&gt;2021年　8月&lt;/h1&gt;" style="strokeWidth=1;shadow=0;dashed=0;align=center;html=1;shape=mxgraph.mockup.forms.anchor;fontColor=#999999;" vertex="1" parent="VeFfzqYJXBhpypY60JfP-7">
          <mxGeometry x="183.75" y="27.42857142857143" width="612.5" height="68.57142857142857" as="geometry" />
        </mxCell>
        <mxCell id="VeFfzqYJXBhpypY60JfP-9" value="&lt;" style="strokeWidth=1;shadow=0;dashed=0;align=center;html=1;shape=mxgraph.mockup.forms.rrect;rSize=4;strokeColor=#999999;fontColor=#008cff;fontSize=19;fontStyle=1;" vertex="1" parent="VeFfzqYJXBhpypY60JfP-7">
          <mxGeometry x="61.25" y="35.43" width="132.12" height="54.57" as="geometry" />
        </mxCell>
        <mxCell id="VeFfzqYJXBhpypY60JfP-10" value="&gt;" style="strokeWidth=1;shadow=0;dashed=0;align=center;html=1;shape=mxgraph.mockup.forms.rrect;rSize=4;strokeColor=#999999;fontColor=#008cff;fontSize=19;fontStyle=1;" vertex="1" parent="VeFfzqYJXBhpypY60JfP-7">
          <mxGeometry x="786.62" y="35.43" width="132.13" height="52.57" as="geometry" />
        </mxCell>
        <mxCell id="VeFfzqYJXBhpypY60JfP-11" value="日" style="strokeWidth=1;shadow=0;dashed=0;align=center;html=1;shape=mxgraph.mockup.forms.anchor;fontColor=#999999;" vertex="1" parent="VeFfzqYJXBhpypY60JfP-7">
          <mxGeometry x="61.25" y="96" width="122.5" height="68.57142857142857" as="geometry" />
        </mxCell>
        <mxCell id="VeFfzqYJXBhpypY60JfP-12" value="月" style="strokeWidth=1;shadow=0;dashed=0;align=center;html=1;shape=mxgraph.mockup.forms.anchor;fontColor=#999999;" vertex="1" parent="VeFfzqYJXBhpypY60JfP-7">
          <mxGeometry x="183.75" y="96" width="122.5" height="68.57142857142857" as="geometry" />
        </mxCell>
        <mxCell id="VeFfzqYJXBhpypY60JfP-13" value="火" style="strokeWidth=1;shadow=0;dashed=0;align=center;html=1;shape=mxgraph.mockup.forms.anchor;fontColor=#999999;" vertex="1" parent="VeFfzqYJXBhpypY60JfP-7">
          <mxGeometry x="306.25" y="96" width="122.5" height="68.57142857142857" as="geometry" />
        </mxCell>
        <mxCell id="VeFfzqYJXBhpypY60JfP-14" value="水" style="strokeWidth=1;shadow=0;dashed=0;align=center;html=1;shape=mxgraph.mockup.forms.anchor;fontColor=#999999;" vertex="1" parent="VeFfzqYJXBhpypY60JfP-7">
          <mxGeometry x="428.75" y="96" width="122.5" height="68.57142857142857" as="geometry" />
        </mxCell>
        <mxCell id="VeFfzqYJXBhpypY60JfP-15" value="木" style="strokeWidth=1;shadow=0;dashed=0;align=center;html=1;shape=mxgraph.mockup.forms.anchor;fontColor=#999999;" vertex="1" parent="VeFfzqYJXBhpypY60JfP-7">
          <mxGeometry x="551.25" y="96" width="122.5" height="68.57142857142857" as="geometry" />
        </mxCell>
        <mxCell id="VeFfzqYJXBhpypY60JfP-16" value="金" style="strokeWidth=1;shadow=0;dashed=0;align=center;html=1;shape=mxgraph.mockup.forms.anchor;fontColor=#999999;" vertex="1" parent="VeFfzqYJXBhpypY60JfP-7">
          <mxGeometry x="673.75" y="96" width="122.5" height="68.57142857142857" as="geometry" />
        </mxCell>
        <mxCell id="VeFfzqYJXBhpypY60JfP-17" value="土" style="strokeWidth=1;shadow=0;dashed=0;align=center;html=1;shape=mxgraph.mockup.forms.anchor;fontColor=#999999;" vertex="1" parent="VeFfzqYJXBhpypY60JfP-7">
          <mxGeometry x="796.25" y="96" width="122.5" height="68.57142857142857" as="geometry" />
        </mxCell>
        <mxCell id="VeFfzqYJXBhpypY60JfP-18" value="1" style="strokeWidth=1;shadow=0;dashed=0;align=center;html=1;shape=mxgraph.mockup.forms.rrect;rSize=0;strokeColor=#999999;fontColor=#999999;" vertex="1" parent="VeFfzqYJXBhpypY60JfP-7">
          <mxGeometry x="61.25" y="164.57142857142858" width="122.5" height="68.57142857142857" as="geometry" />
        </mxCell>
        <mxCell id="VeFfzqYJXBhpypY60JfP-19" value="2" style="strokeWidth=1;shadow=0;dashed=0;align=center;html=1;shape=mxgraph.mockup.forms.rrect;rSize=0;strokeColor=#999999;fontColor=#999999;" vertex="1" parent="VeFfzqYJXBhpypY60JfP-7">
          <mxGeometry x="183.75" y="164.57142857142858" width="122.5" height="68.57142857142857" as="geometry" />
        </mxCell>
        <mxCell id="VeFfzqYJXBhpypY60JfP-20" value="3" style="strokeWidth=1;shadow=0;dashed=0;align=center;html=1;shape=mxgraph.mockup.forms.rrect;rSize=0;strokeColor=#999999;fontColor=#999999;" vertex="1" parent="VeFfzqYJXBhpypY60JfP-7">
          <mxGeometry x="306.25" y="164.57142857142858" width="122.5" height="68.57142857142857" as="geometry" />
        </mxCell>
        <mxCell id="VeFfzqYJXBhpypY60JfP-21" value="4" style="strokeWidth=1;shadow=0;dashed=0;align=center;html=1;shape=mxgraph.mockup.forms.rrect;rSize=0;strokeColor=#999999;fontColor=#999999;" vertex="1" parent="VeFfzqYJXBhpypY60JfP-7">
          <mxGeometry x="428.75" y="164.57142857142858" width="122.5" height="68.57142857142857" as="geometry" />
        </mxCell>
        <mxCell id="VeFfzqYJXBhpypY60JfP-22" value="5" style="strokeWidth=1;shadow=0;dashed=0;align=center;html=1;shape=mxgraph.mockup.forms.rrect;rSize=0;strokeColor=#999999;fontColor=#999999;" vertex="1" parent="VeFfzqYJXBhpypY60JfP-7">
          <mxGeometry x="551.25" y="164.57142857142858" width="122.5" height="68.57142857142857" as="geometry" />
        </mxCell>
        <mxCell id="VeFfzqYJXBhpypY60JfP-23" value="6" style="strokeWidth=1;shadow=0;dashed=0;align=center;html=1;shape=mxgraph.mockup.forms.rrect;rSize=0;strokeColor=#999999;fontColor=#999999;" vertex="1" parent="VeFfzqYJXBhpypY60JfP-7">
          <mxGeometry x="673.75" y="164.57142857142858" width="122.5" height="68.57142857142857" as="geometry" />
        </mxCell>
        <mxCell id="VeFfzqYJXBhpypY60JfP-24" value="7" style="strokeWidth=1;shadow=0;dashed=0;align=center;html=1;shape=mxgraph.mockup.forms.rrect;rSize=0;strokeColor=#999999;fontColor=#999999;" vertex="1" parent="VeFfzqYJXBhpypY60JfP-7">
          <mxGeometry x="796.25" y="164.57142857142858" width="122.5" height="68.57142857142857" as="geometry" />
        </mxCell>
        <mxCell id="VeFfzqYJXBhpypY60JfP-25" value="8" style="strokeWidth=1;shadow=0;dashed=0;align=center;html=1;shape=mxgraph.mockup.forms.rrect;rSize=0;strokeColor=#999999;fontColor=#999999;" vertex="1" parent="VeFfzqYJXBhpypY60JfP-7">
          <mxGeometry x="61.25" y="233.1428571428572" width="122.5" height="68.57142857142857" as="geometry" />
        </mxCell>
        <mxCell id="VeFfzqYJXBhpypY60JfP-26" value="9" style="strokeWidth=1;shadow=0;dashed=0;align=center;html=1;shape=mxgraph.mockup.forms.rrect;rSize=0;strokeColor=#999999;fontColor=#999999;" vertex="1" parent="VeFfzqYJXBhpypY60JfP-7">
          <mxGeometry x="183.75" y="233.1428571428572" width="122.5" height="68.57142857142857" as="geometry" />
        </mxCell>
        <mxCell id="VeFfzqYJXBhpypY60JfP-27" value="10" style="strokeWidth=1;shadow=0;dashed=0;align=center;html=1;shape=mxgraph.mockup.forms.rrect;rSize=0;strokeColor=#999999;fontColor=#999999;" vertex="1" parent="VeFfzqYJXBhpypY60JfP-7">
          <mxGeometry x="306.25" y="233.1428571428572" width="122.5" height="68.57142857142857" as="geometry" />
        </mxCell>
        <mxCell id="VeFfzqYJXBhpypY60JfP-28" value="11" style="strokeWidth=1;shadow=0;dashed=0;align=center;html=1;shape=mxgraph.mockup.forms.rrect;rSize=0;strokeColor=#999999;fontColor=#999999;" vertex="1" parent="VeFfzqYJXBhpypY60JfP-7">
          <mxGeometry x="428.75" y="233.1428571428572" width="122.5" height="68.57142857142857" as="geometry" />
        </mxCell>
        <mxCell id="VeFfzqYJXBhpypY60JfP-29" value="12" style="strokeWidth=1;shadow=0;dashed=0;align=center;html=1;shape=mxgraph.mockup.forms.rrect;rSize=0;strokeColor=#999999;fontColor=#999999;" vertex="1" parent="VeFfzqYJXBhpypY60JfP-7">
          <mxGeometry x="551.25" y="233.1428571428572" width="122.5" height="68.57142857142857" as="geometry" />
        </mxCell>
        <mxCell id="VeFfzqYJXBhpypY60JfP-30" value="13" style="strokeWidth=1;shadow=0;dashed=0;align=center;html=1;shape=mxgraph.mockup.forms.rrect;rSize=0;strokeColor=#999999;fontColor=#999999;" vertex="1" parent="VeFfzqYJXBhpypY60JfP-7">
          <mxGeometry x="673.75" y="233.1428571428572" width="122.5" height="68.57142857142857" as="geometry" />
        </mxCell>
        <mxCell id="VeFfzqYJXBhpypY60JfP-31" value="14" style="strokeWidth=1;shadow=0;dashed=0;align=center;html=1;shape=mxgraph.mockup.forms.rrect;rSize=0;strokeColor=#999999;fontColor=#999999;" vertex="1" parent="VeFfzqYJXBhpypY60JfP-7">
          <mxGeometry x="796.25" y="233.1428571428572" width="122.5" height="68.57142857142857" as="geometry" />
        </mxCell>
        <mxCell id="VeFfzqYJXBhpypY60JfP-32" value="15" style="strokeWidth=1;shadow=0;dashed=0;align=center;html=1;shape=mxgraph.mockup.forms.rrect;rSize=0;strokeColor=#999999;fontColor=#999999;" vertex="1" parent="VeFfzqYJXBhpypY60JfP-7">
          <mxGeometry x="61.25" y="301.7142857142857" width="122.5" height="68.57142857142857" as="geometry" />
        </mxCell>
        <mxCell id="VeFfzqYJXBhpypY60JfP-33" value="16" style="strokeWidth=1;shadow=0;dashed=0;align=center;html=1;shape=mxgraph.mockup.forms.rrect;rSize=0;strokeColor=#999999;fontColor=#999999;" vertex="1" parent="VeFfzqYJXBhpypY60JfP-7">
          <mxGeometry x="183.75" y="301.7142857142857" width="122.5" height="68.57142857142857" as="geometry" />
        </mxCell>
        <mxCell id="VeFfzqYJXBhpypY60JfP-34" value="17" style="strokeWidth=1;shadow=0;dashed=0;align=center;html=1;shape=mxgraph.mockup.forms.rrect;rSize=0;strokeColor=#999999;fontColor=#999999;" vertex="1" parent="VeFfzqYJXBhpypY60JfP-7">
          <mxGeometry x="306.25" y="301.7142857142857" width="122.5" height="68.57142857142857" as="geometry" />
        </mxCell>
        <mxCell id="VeFfzqYJXBhpypY60JfP-35" value="18" style="strokeWidth=1;shadow=0;dashed=0;align=center;html=1;shape=mxgraph.mockup.forms.rrect;rSize=0;strokeColor=#999999;fontColor=#999999;" vertex="1" parent="VeFfzqYJXBhpypY60JfP-7">
          <mxGeometry x="428.75" y="301.7142857142857" width="122.5" height="68.57142857142857" as="geometry" />
        </mxCell>
        <mxCell id="VeFfzqYJXBhpypY60JfP-36" value="19" style="strokeWidth=1;shadow=0;dashed=0;align=center;html=1;shape=mxgraph.mockup.forms.rrect;rSize=0;strokeColor=#999999;fontColor=#999999;" vertex="1" parent="VeFfzqYJXBhpypY60JfP-7">
          <mxGeometry x="551.25" y="301.7142857142857" width="122.5" height="68.57142857142857" as="geometry" />
        </mxCell>
        <mxCell id="VeFfzqYJXBhpypY60JfP-37" value="20" style="strokeWidth=1;shadow=0;dashed=0;align=center;html=1;shape=mxgraph.mockup.forms.rrect;rSize=0;strokeColor=#999999;fontColor=#999999;" vertex="1" parent="VeFfzqYJXBhpypY60JfP-7">
          <mxGeometry x="673.75" y="301.7142857142857" width="122.5" height="68.57142857142857" as="geometry" />
        </mxCell>
        <mxCell id="VeFfzqYJXBhpypY60JfP-38" value="21" style="strokeWidth=1;shadow=0;dashed=0;align=center;html=1;shape=mxgraph.mockup.forms.rrect;rSize=0;strokeColor=#999999;fontColor=#999999;" vertex="1" parent="VeFfzqYJXBhpypY60JfP-7">
          <mxGeometry x="796.25" y="301.7142857142857" width="122.5" height="68.57142857142857" as="geometry" />
        </mxCell>
        <mxCell id="VeFfzqYJXBhpypY60JfP-39" value="22" style="strokeWidth=1;shadow=0;dashed=0;align=center;html=1;shape=mxgraph.mockup.forms.rrect;rSize=0;strokeColor=#999999;fontColor=#999999;" vertex="1" parent="VeFfzqYJXBhpypY60JfP-7">
          <mxGeometry x="61.25" y="370.2857142857143" width="122.5" height="68.57142857142857" as="geometry" />
        </mxCell>
        <mxCell id="VeFfzqYJXBhpypY60JfP-40" value="23" style="strokeWidth=1;shadow=0;dashed=0;align=center;html=1;shape=mxgraph.mockup.forms.rrect;rSize=0;strokeColor=#999999;fontColor=#999999;" vertex="1" parent="VeFfzqYJXBhpypY60JfP-7">
          <mxGeometry x="183.75" y="370.2857142857143" width="122.5" height="68.57142857142857" as="geometry" />
        </mxCell>
        <mxCell id="VeFfzqYJXBhpypY60JfP-41" value="25" style="strokeWidth=1;shadow=0;dashed=0;align=center;html=1;shape=mxgraph.mockup.forms.rrect;rSize=0;strokeColor=#999999;fontColor=#999999;" vertex="1" parent="VeFfzqYJXBhpypY60JfP-7">
          <mxGeometry x="428.75" y="370.2857142857143" width="122.5" height="68.57142857142857" as="geometry" />
        </mxCell>
        <mxCell id="VeFfzqYJXBhpypY60JfP-42" value="26" style="strokeWidth=1;shadow=0;dashed=0;align=center;html=1;shape=mxgraph.mockup.forms.rrect;rSize=0;strokeColor=#999999;fontColor=#999999;" vertex="1" parent="VeFfzqYJXBhpypY60JfP-7">
          <mxGeometry x="551.25" y="370.2857142857143" width="122.5" height="68.57142857142857" as="geometry" />
        </mxCell>
        <mxCell id="VeFfzqYJXBhpypY60JfP-43" value="27" style="strokeWidth=1;shadow=0;dashed=0;align=center;html=1;shape=mxgraph.mockup.forms.rrect;rSize=0;strokeColor=#999999;fontColor=#999999;" vertex="1" parent="VeFfzqYJXBhpypY60JfP-7">
          <mxGeometry x="673.75" y="370.2857142857143" width="122.5" height="68.57142857142857" as="geometry" />
        </mxCell>
        <mxCell id="VeFfzqYJXBhpypY60JfP-44" value="28" style="strokeWidth=1;shadow=0;dashed=0;align=center;html=1;shape=mxgraph.mockup.forms.rrect;rSize=0;strokeColor=#999999;fontColor=#999999;" vertex="1" parent="VeFfzqYJXBhpypY60JfP-7">
          <mxGeometry x="796.25" y="370.2857142857143" width="122.5" height="68.57142857142857" as="geometry" />
        </mxCell>
        <mxCell id="VeFfzqYJXBhpypY60JfP-45" value="29" style="strokeWidth=1;shadow=0;dashed=0;align=center;html=1;shape=mxgraph.mockup.forms.rrect;rSize=0;strokeColor=#999999;fontColor=#999999;" vertex="1" parent="VeFfzqYJXBhpypY60JfP-7">
          <mxGeometry x="61.25" y="438.8571428571429" width="122.5" height="68.57142857142857" as="geometry" />
        </mxCell>
        <mxCell id="VeFfzqYJXBhpypY60JfP-46" value="30" style="strokeWidth=1;shadow=0;dashed=0;align=center;html=1;shape=mxgraph.mockup.forms.rrect;rSize=0;strokeColor=#999999;fontColor=#999999;" vertex="1" parent="VeFfzqYJXBhpypY60JfP-7">
          <mxGeometry x="183.75" y="438.8571428571429" width="122.5" height="68.57142857142857" as="geometry" />
        </mxCell>
        <mxCell id="VeFfzqYJXBhpypY60JfP-47" value="31" style="strokeWidth=1;shadow=0;dashed=0;align=center;html=1;shape=mxgraph.mockup.forms.rrect;rSize=0;strokeColor=#999999;fontColor=#999999;" vertex="1" parent="VeFfzqYJXBhpypY60JfP-7">
          <mxGeometry x="306.25" y="438.8571428571429" width="122.5" height="68.57142857142857" as="geometry" />
        </mxCell>
        <mxCell id="VeFfzqYJXBhpypY60JfP-48" value="1" style="strokeWidth=1;shadow=0;dashed=0;align=center;html=1;shape=mxgraph.mockup.forms.rrect;rSize=0;strokeColor=#999999;fontColor=#999999;fillColor=#ddeeff;" vertex="1" parent="VeFfzqYJXBhpypY60JfP-7">
          <mxGeometry x="428.75" y="438.8571428571429" width="122.5" height="68.57142857142857" as="geometry" />
        </mxCell>
        <mxCell id="VeFfzqYJXBhpypY60JfP-49" value="2" style="strokeWidth=1;shadow=0;dashed=0;align=center;html=1;shape=mxgraph.mockup.forms.rrect;rSize=0;strokeColor=#999999;fontColor=#999999;fillColor=#ddeeff;" vertex="1" parent="VeFfzqYJXBhpypY60JfP-7">
          <mxGeometry x="551.25" y="438.8571428571429" width="122.5" height="68.57142857142857" as="geometry" />
        </mxCell>
        <mxCell id="VeFfzqYJXBhpypY60JfP-50" value="3" style="strokeWidth=1;shadow=0;dashed=0;align=center;html=1;shape=mxgraph.mockup.forms.rrect;rSize=0;strokeColor=#999999;fontColor=#999999;fillColor=#ddeeff;" vertex="1" parent="VeFfzqYJXBhpypY60JfP-7">
          <mxGeometry x="673.75" y="438.8571428571429" width="122.5" height="68.57142857142857" as="geometry" />
        </mxCell>
        <mxCell id="VeFfzqYJXBhpypY60JfP-51" value="4" style="strokeWidth=1;shadow=0;dashed=0;align=center;html=1;shape=mxgraph.mockup.forms.rrect;rSize=0;strokeColor=#999999;fontColor=#999999;fillColor=#ddeeff;" vertex="1" parent="VeFfzqYJXBhpypY60JfP-7">
          <mxGeometry x="796.25" y="438.8571428571429" width="122.5" height="68.57142857142857" as="geometry" />
        </mxCell>
        <mxCell id="VeFfzqYJXBhpypY60JfP-52" value="5" style="strokeWidth=1;shadow=0;dashed=0;align=center;html=1;shape=mxgraph.mockup.forms.rrect;rSize=0;strokeColor=#999999;fontColor=#999999;fillColor=#ddeeff;" vertex="1" parent="VeFfzqYJXBhpypY60JfP-7">
          <mxGeometry x="61.25" y="507.42857142857144" width="122.5" height="68.57142857142857" as="geometry" />
        </mxCell>
        <mxCell id="VeFfzqYJXBhpypY60JfP-53" value="6" style="strokeWidth=1;shadow=0;dashed=0;align=center;html=1;shape=mxgraph.mockup.forms.rrect;rSize=0;strokeColor=#999999;fontColor=#999999;fillColor=#ddeeff;" vertex="1" parent="VeFfzqYJXBhpypY60JfP-7">
          <mxGeometry x="183.75" y="507.42857142857144" width="122.5" height="68.57142857142857" as="geometry" />
        </mxCell>
        <mxCell id="VeFfzqYJXBhpypY60JfP-54" value="7" style="strokeWidth=1;shadow=0;dashed=0;align=center;html=1;shape=mxgraph.mockup.forms.rrect;rSize=0;strokeColor=#999999;fontColor=#999999;fillColor=#ddeeff;" vertex="1" parent="VeFfzqYJXBhpypY60JfP-7">
          <mxGeometry x="306.25" y="507.42857142857144" width="122.5" height="68.57142857142857" as="geometry" />
        </mxCell>
        <mxCell id="VeFfzqYJXBhpypY60JfP-55" value="8" style="strokeWidth=1;shadow=0;dashed=0;align=center;html=1;shape=mxgraph.mockup.forms.rrect;rSize=0;strokeColor=#999999;fontColor=#999999;fillColor=#ddeeff;" vertex="1" parent="VeFfzqYJXBhpypY60JfP-7">
          <mxGeometry x="428.75" y="507.42857142857144" width="122.5" height="68.57142857142857" as="geometry" />
        </mxCell>
        <mxCell id="VeFfzqYJXBhpypY60JfP-56" value="9" style="strokeWidth=1;shadow=0;dashed=0;align=center;html=1;shape=mxgraph.mockup.forms.rrect;rSize=0;strokeColor=#999999;fontColor=#999999;fillColor=#ddeeff;" vertex="1" parent="VeFfzqYJXBhpypY60JfP-7">
          <mxGeometry x="551.25" y="507.42857142857144" width="122.5" height="68.57142857142857" as="geometry" />
        </mxCell>
        <mxCell id="VeFfzqYJXBhpypY60JfP-57" value="10" style="strokeWidth=1;shadow=0;dashed=0;align=center;html=1;shape=mxgraph.mockup.forms.rrect;rSize=0;strokeColor=#999999;fontColor=#999999;fillColor=#ddeeff;" vertex="1" parent="VeFfzqYJXBhpypY60JfP-7">
          <mxGeometry x="673.75" y="507.42857142857144" width="122.5" height="68.57142857142857" as="geometry" />
        </mxCell>
        <mxCell id="VeFfzqYJXBhpypY60JfP-58" value="11" style="strokeWidth=1;shadow=0;dashed=0;align=center;html=1;shape=mxgraph.mockup.forms.rrect;rSize=0;strokeColor=#999999;fontColor=#999999;fillColor=#ddeeff;" vertex="1" parent="VeFfzqYJXBhpypY60JfP-7">
          <mxGeometry x="796.25" y="507.42857142857144" width="122.5" height="68.57142857142857" as="geometry" />
        </mxCell>
        <mxCell id="VeFfzqYJXBhpypY60JfP-59" value="24" style="strokeWidth=1;shadow=0;dashed=0;align=center;html=1;shape=mxgraph.mockup.forms.rrect;rSize=0;strokeColor=#ff0000;fontColor=#ffffff;strokeWidth=2;fillColor=#E6D0DE;" vertex="1" parent="VeFfzqYJXBhpypY60JfP-7">
          <mxGeometry x="306.25" y="370.2857142857143" width="122.5" height="68.57142857142857" as="geometry" />
        </mxCell>
        <mxCell id="VeFfzqYJXBhpypY60JfP-60" value="&lt;h1 style=&quot;font-size: 18px&quot;&gt;農作物予定表&lt;/h1&gt;" style="text;html=1;strokeColor=none;fillColor=none;align=center;verticalAlign=middle;whiteSpace=wrap;rounded=0;labelBackgroundColor=none;fontSize=18;" vertex="1" parent="VeFfzqYJXBhpypY60JfP-1">
          <mxGeometry x="50" y="228" width="150" height="20" as="geometry" />
        </mxCell>
      </root>
    </mxGraphModel>
  </diagram>
  <diagram id="1izbvhHbLRFzOta0quer" name="実績管理">
    <mxGraphModel dx="1422" dy="762" grid="1" gridSize="10" guides="1" tooltips="1" connect="1" arrows="1" fold="1" page="1" pageScale="1" pageWidth="827" pageHeight="1169" math="0" shadow="0">
      <root>
        <mxCell id="otlfZnmGluK3LMXujdWA-0" />
        <mxCell id="otlfZnmGluK3LMXujdWA-1" parent="otlfZnmGluK3LMXujdWA-0" />
        <mxCell id="otlfZnmGluK3LMXujdWA-2" value="" style="whiteSpace=wrap;html=1;rounded=0;shadow=0;labelBackgroundColor=none;strokeColor=#000000;strokeWidth=1;fillColor=none;fontFamily=Verdana;fontSize=12;fontColor=#000000;align=center;comic=1;" vertex="1" parent="otlfZnmGluK3LMXujdWA-1">
          <mxGeometry x="20" y="40" width="1060" height="1090" as="geometry" />
        </mxCell>
        <mxCell id="otlfZnmGluK3LMXujdWA-3" value="LOGO" style="whiteSpace=wrap;html=1;rounded=0;shadow=0;labelBackgroundColor=none;strokeWidth=1;fontFamily=Verdana;fontSize=28;align=center;comic=1;" vertex="1" parent="otlfZnmGluK3LMXujdWA-1">
          <mxGeometry x="40" y="60" width="190" height="50" as="geometry" />
        </mxCell>
        <mxCell id="otlfZnmGluK3LMXujdWA-4" value="" style="line;strokeWidth=1;html=1;rounded=0;shadow=0;labelBackgroundColor=none;fillColor=none;fontFamily=Verdana;fontSize=14;fontColor=#000000;align=center;comic=1;" vertex="1" parent="otlfZnmGluK3LMXujdWA-1">
          <mxGeometry x="20" y="140" width="1060" height="10" as="geometry" />
        </mxCell>
        <mxCell id="otlfZnmGluK3LMXujdWA-5" value="" style="whiteSpace=wrap;html=1;rounded=0;shadow=0;labelBackgroundColor=none;strokeWidth=1;fillColor=none;fontFamily=Verdana;fontSize=12;align=center;comic=1;" vertex="1" parent="otlfZnmGluK3LMXujdWA-1">
          <mxGeometry x="30" y="160" width="1040" height="50" as="geometry" />
        </mxCell>
        <mxCell id="otlfZnmGluK3LMXujdWA-6" value="top画面" style="text;html=1;points=[];align=left;verticalAlign=top;spacingTop=-4;fontSize=14;fontFamily=Verdana" vertex="1" parent="otlfZnmGluK3LMXujdWA-1">
          <mxGeometry x="990" y="175" width="60" height="20" as="geometry" />
        </mxCell>
        <mxCell id="otlfZnmGluK3LMXujdWA-7" value="農作物管理" style="text;html=1;strokeColor=none;fillColor=none;align=center;verticalAlign=middle;whiteSpace=wrap;rounded=0;labelBackgroundColor=none;fontSize=20;fontStyle=1" vertex="1" parent="otlfZnmGluK3LMXujdWA-1">
          <mxGeometry x="130" y="240" width="140" height="30" as="geometry" />
        </mxCell>
        <mxCell id="otlfZnmGluK3LMXujdWA-8" value="日付" style="text;html=1;strokeColor=none;fillColor=none;align=center;verticalAlign=middle;whiteSpace=wrap;rounded=0;labelBackgroundColor=none;fontSize=17;" vertex="1" parent="otlfZnmGluK3LMXujdWA-1">
          <mxGeometry x="154" y="300" width="40" height="20" as="geometry" />
        </mxCell>
        <mxCell id="otlfZnmGluK3LMXujdWA-9" value="" style="rounded=0;whiteSpace=wrap;html=1;labelBackgroundColor=none;fontSize=17;" vertex="1" parent="otlfZnmGluK3LMXujdWA-1">
          <mxGeometry x="230" y="295" width="170" height="30" as="geometry" />
        </mxCell>
        <mxCell id="otlfZnmGluK3LMXujdWA-10" value="作業内容" style="text;html=1;strokeColor=none;fillColor=none;align=center;verticalAlign=middle;whiteSpace=wrap;rounded=0;labelBackgroundColor=none;fontSize=17;" vertex="1" parent="otlfZnmGluK3LMXujdWA-1">
          <mxGeometry x="132" y="400" width="90" height="20" as="geometry" />
        </mxCell>
        <mxCell id="otlfZnmGluK3LMXujdWA-11" value="" style="rounded=0;whiteSpace=wrap;html=1;labelBackgroundColor=none;fontSize=17;" vertex="1" parent="otlfZnmGluK3LMXujdWA-1">
          <mxGeometry x="160" y="430" width="760" height="180" as="geometry" />
        </mxCell>
        <mxCell id="otlfZnmGluK3LMXujdWA-12" value="資材" style="text;html=1;strokeColor=none;fillColor=none;align=center;verticalAlign=middle;whiteSpace=wrap;rounded=0;labelBackgroundColor=none;fontSize=17;" vertex="1" parent="otlfZnmGluK3LMXujdWA-1">
          <mxGeometry x="156" y="630" width="40" height="20" as="geometry" />
        </mxCell>
        <mxCell id="otlfZnmGluK3LMXujdWA-13" value="" style="rounded=0;whiteSpace=wrap;html=1;labelBackgroundColor=none;fontSize=17;" vertex="1" parent="otlfZnmGluK3LMXujdWA-1">
          <mxGeometry x="160" y="660" width="760" height="60" as="geometry" />
        </mxCell>
        <mxCell id="otlfZnmGluK3LMXujdWA-14" value="" style="rounded=0;whiteSpace=wrap;html=1;labelBackgroundColor=none;fontSize=17;" vertex="1" parent="otlfZnmGluK3LMXujdWA-1">
          <mxGeometry x="230" y="345" width="170" height="30" as="geometry" />
        </mxCell>
        <mxCell id="otlfZnmGluK3LMXujdWA-15" value="作業時間" style="text;html=1;strokeColor=none;fillColor=none;align=center;verticalAlign=middle;whiteSpace=wrap;rounded=0;labelBackgroundColor=none;fontSize=17;" vertex="1" parent="otlfZnmGluK3LMXujdWA-1">
          <mxGeometry x="540" y="300" width="85" height="20" as="geometry" />
        </mxCell>
        <mxCell id="otlfZnmGluK3LMXujdWA-16" value="" style="rounded=0;whiteSpace=wrap;html=1;labelBackgroundColor=none;fontSize=17;" vertex="1" parent="otlfZnmGluK3LMXujdWA-1">
          <mxGeometry x="640" y="295" width="170" height="30" as="geometry" />
        </mxCell>
        <mxCell id="otlfZnmGluK3LMXujdWA-17" value="作業人数" style="text;html=1;strokeColor=none;fillColor=none;align=center;verticalAlign=middle;whiteSpace=wrap;rounded=0;labelBackgroundColor=none;fontSize=17;" vertex="1" parent="otlfZnmGluK3LMXujdWA-1">
          <mxGeometry x="132" y="350" width="90" height="20" as="geometry" />
        </mxCell>
        <mxCell id="otlfZnmGluK3LMXujdWA-18" value="天気" style="text;html=1;strokeColor=none;fillColor=none;align=center;verticalAlign=middle;whiteSpace=wrap;rounded=0;labelBackgroundColor=none;fontSize=17;" vertex="1" parent="otlfZnmGluK3LMXujdWA-1">
          <mxGeometry x="540" y="350" width="90" height="20" as="geometry" />
        </mxCell>
        <mxCell id="otlfZnmGluK3LMXujdWA-19" value="" style="rounded=0;whiteSpace=wrap;html=1;labelBackgroundColor=none;fontSize=17;" vertex="1" parent="otlfZnmGluK3LMXujdWA-1">
          <mxGeometry x="640" y="345" width="170" height="30" as="geometry" />
        </mxCell>
        <mxCell id="otlfZnmGluK3LMXujdWA-20" value="コメント" style="text;html=1;strokeColor=none;fillColor=none;align=center;verticalAlign=middle;whiteSpace=wrap;rounded=0;labelBackgroundColor=none;fontSize=17;" vertex="1" parent="otlfZnmGluK3LMXujdWA-1">
          <mxGeometry x="140" y="840" width="103" height="20" as="geometry" />
        </mxCell>
        <mxCell id="otlfZnmGluK3LMXujdWA-21" value="" style="rounded=0;whiteSpace=wrap;html=1;labelBackgroundColor=none;fontSize=17;" vertex="1" parent="otlfZnmGluK3LMXujdWA-1">
          <mxGeometry x="160" y="870" width="760" height="100" as="geometry" />
        </mxCell>
        <mxCell id="otlfZnmGluK3LMXujdWA-22" value="編集" style="labelPosition=center;verticalLabelPosition=middle;align=center;html=1;shape=mxgraph.basic.shaded_button;dx=10;fillColor=#dae8fc;strokeColor=#6c8ebf;labelBackgroundColor=none;fontSize=17;" vertex="1" parent="otlfZnmGluK3LMXujdWA-1">
          <mxGeometry x="820" y="1020" width="100" height="60" as="geometry" />
        </mxCell>
        <mxCell id="otlfZnmGluK3LMXujdWA-23" value="数量" style="text;html=1;strokeColor=none;fillColor=none;align=center;verticalAlign=middle;whiteSpace=wrap;rounded=0;labelBackgroundColor=none;fontSize=17;" vertex="1" parent="otlfZnmGluK3LMXujdWA-1">
          <mxGeometry x="157" y="740" width="40" height="40" as="geometry" />
        </mxCell>
        <mxCell id="otlfZnmGluK3LMXujdWA-24" value="" style="rounded=0;whiteSpace=wrap;html=1;labelBackgroundColor=none;fontSize=17;" vertex="1" parent="otlfZnmGluK3LMXujdWA-1">
          <mxGeometry x="230" y="745" width="170" height="30" as="geometry" />
        </mxCell>
        <mxCell id="otlfZnmGluK3LMXujdWA-25" value="出荷単価" style="text;html=1;strokeColor=none;fillColor=none;align=center;verticalAlign=middle;whiteSpace=wrap;rounded=0;labelBackgroundColor=none;fontSize=17;" vertex="1" parent="otlfZnmGluK3LMXujdWA-1">
          <mxGeometry x="540" y="755" width="90" height="20" as="geometry" />
        </mxCell>
        <mxCell id="otlfZnmGluK3LMXujdWA-26" value="" style="rounded=0;whiteSpace=wrap;html=1;labelBackgroundColor=none;fontSize=17;" vertex="1" parent="otlfZnmGluK3LMXujdWA-1">
          <mxGeometry x="640" y="750" width="170" height="30" as="geometry" />
        </mxCell>
      </root>
    </mxGraphModel>
  </diagram>
  <diagram id="dSbl4A-wdeCerEVwKfo6" name="予定実績入力">
    <mxGraphModel dx="1422" dy="762" grid="1" gridSize="10" guides="1" tooltips="1" connect="1" arrows="1" fold="1" page="1" pageScale="1" pageWidth="827" pageHeight="1169" math="0" shadow="0">
      <root>
        <mxCell id="slloRqsufxbIWbzuCsP2-0" />
        <mxCell id="slloRqsufxbIWbzuCsP2-1" parent="slloRqsufxbIWbzuCsP2-0" />
        <mxCell id="slloRqsufxbIWbzuCsP2-2" value="" style="whiteSpace=wrap;html=1;rounded=0;shadow=0;labelBackgroundColor=none;strokeColor=#000000;strokeWidth=1;fillColor=none;fontFamily=Verdana;fontSize=12;fontColor=#000000;align=center;comic=1;" vertex="1" parent="slloRqsufxbIWbzuCsP2-1">
          <mxGeometry x="20" y="40" width="1060" height="1090" as="geometry" />
        </mxCell>
        <mxCell id="slloRqsufxbIWbzuCsP2-3" value="LOGO" style="whiteSpace=wrap;html=1;rounded=0;shadow=0;labelBackgroundColor=none;strokeWidth=1;fontFamily=Verdana;fontSize=28;align=center;comic=1;" vertex="1" parent="slloRqsufxbIWbzuCsP2-1">
          <mxGeometry x="40" y="60" width="190" height="50" as="geometry" />
        </mxCell>
        <mxCell id="slloRqsufxbIWbzuCsP2-4" value="" style="line;strokeWidth=1;html=1;rounded=0;shadow=0;labelBackgroundColor=none;fillColor=none;fontFamily=Verdana;fontSize=14;fontColor=#000000;align=center;comic=1;" vertex="1" parent="slloRqsufxbIWbzuCsP2-1">
          <mxGeometry x="20" y="140" width="1060" height="10" as="geometry" />
        </mxCell>
        <mxCell id="slloRqsufxbIWbzuCsP2-5" value="" style="whiteSpace=wrap;html=1;rounded=0;shadow=0;labelBackgroundColor=none;strokeWidth=1;fillColor=none;fontFamily=Verdana;fontSize=12;align=center;comic=1;" vertex="1" parent="slloRqsufxbIWbzuCsP2-1">
          <mxGeometry x="30" y="160" width="1040" height="50" as="geometry" />
        </mxCell>
        <mxCell id="slloRqsufxbIWbzuCsP2-6" value="top画面" style="text;html=1;points=[];align=left;verticalAlign=top;spacingTop=-4;fontSize=14;fontFamily=Verdana" vertex="1" parent="slloRqsufxbIWbzuCsP2-1">
          <mxGeometry x="990" y="175" width="60" height="20" as="geometry" />
        </mxCell>
        <mxCell id="slloRqsufxbIWbzuCsP2-7" value="農作物管理" style="text;html=1;strokeColor=none;fillColor=none;align=center;verticalAlign=middle;whiteSpace=wrap;rounded=0;labelBackgroundColor=none;fontSize=20;fontStyle=1" vertex="1" parent="slloRqsufxbIWbzuCsP2-1">
          <mxGeometry x="130" y="240" width="140" height="30" as="geometry" />
        </mxCell>
        <mxCell id="slloRqsufxbIWbzuCsP2-8" value="日付" style="text;html=1;strokeColor=none;fillColor=none;align=center;verticalAlign=middle;whiteSpace=wrap;rounded=0;labelBackgroundColor=none;fontSize=17;" vertex="1" parent="slloRqsufxbIWbzuCsP2-1">
          <mxGeometry x="154" y="300" width="40" height="20" as="geometry" />
        </mxCell>
        <mxCell id="slloRqsufxbIWbzuCsP2-9" value="" style="rounded=0;whiteSpace=wrap;html=1;labelBackgroundColor=none;fontSize=17;" vertex="1" parent="slloRqsufxbIWbzuCsP2-1">
          <mxGeometry x="230" y="295" width="170" height="30" as="geometry" />
        </mxCell>
        <mxCell id="slloRqsufxbIWbzuCsP2-10" value="作業内容" style="text;html=1;strokeColor=none;fillColor=none;align=center;verticalAlign=middle;whiteSpace=wrap;rounded=0;labelBackgroundColor=none;fontSize=17;" vertex="1" parent="slloRqsufxbIWbzuCsP2-1">
          <mxGeometry x="132" y="400" width="90" height="20" as="geometry" />
        </mxCell>
        <mxCell id="slloRqsufxbIWbzuCsP2-11" value="" style="rounded=0;whiteSpace=wrap;html=1;labelBackgroundColor=none;fontSize=17;" vertex="1" parent="slloRqsufxbIWbzuCsP2-1">
          <mxGeometry x="160" y="430" width="760" height="180" as="geometry" />
        </mxCell>
        <mxCell id="slloRqsufxbIWbzuCsP2-12" value="資材" style="text;html=1;strokeColor=none;fillColor=none;align=center;verticalAlign=middle;whiteSpace=wrap;rounded=0;labelBackgroundColor=none;fontSize=17;" vertex="1" parent="slloRqsufxbIWbzuCsP2-1">
          <mxGeometry x="156" y="630" width="40" height="20" as="geometry" />
        </mxCell>
        <mxCell id="slloRqsufxbIWbzuCsP2-13" value="" style="rounded=0;whiteSpace=wrap;html=1;labelBackgroundColor=none;fontSize=17;" vertex="1" parent="slloRqsufxbIWbzuCsP2-1">
          <mxGeometry x="160" y="660" width="760" height="60" as="geometry" />
        </mxCell>
        <mxCell id="slloRqsufxbIWbzuCsP2-14" value="予定登録" style="labelPosition=center;verticalLabelPosition=middle;align=center;html=1;shape=mxgraph.basic.shaded_button;dx=10;fillColor=#dae8fc;strokeColor=#6c8ebf;labelBackgroundColor=none;fontSize=17;" vertex="1" parent="slloRqsufxbIWbzuCsP2-1">
          <mxGeometry x="560" y="1020" width="100" height="60" as="geometry" />
        </mxCell>
        <mxCell id="slloRqsufxbIWbzuCsP2-15" value="予定削除" style="labelPosition=center;verticalLabelPosition=middle;align=center;html=1;shape=mxgraph.basic.shaded_button;dx=10;fillColor=#dae8fc;strokeColor=#6c8ebf;labelBackgroundColor=none;fontSize=17;" vertex="1" parent="slloRqsufxbIWbzuCsP2-1">
          <mxGeometry x="690" y="1020" width="100" height="60" as="geometry" />
        </mxCell>
        <mxCell id="slloRqsufxbIWbzuCsP2-16" value="" style="rounded=0;whiteSpace=wrap;html=1;labelBackgroundColor=none;fontSize=17;" vertex="1" parent="slloRqsufxbIWbzuCsP2-1">
          <mxGeometry x="230" y="345" width="170" height="30" as="geometry" />
        </mxCell>
        <mxCell id="slloRqsufxbIWbzuCsP2-17" value="作業時間" style="text;html=1;strokeColor=none;fillColor=none;align=center;verticalAlign=middle;whiteSpace=wrap;rounded=0;labelBackgroundColor=none;fontSize=17;" vertex="1" parent="slloRqsufxbIWbzuCsP2-1">
          <mxGeometry x="540" y="300" width="85" height="20" as="geometry" />
        </mxCell>
        <mxCell id="slloRqsufxbIWbzuCsP2-18" value="" style="rounded=0;whiteSpace=wrap;html=1;labelBackgroundColor=none;fontSize=17;" vertex="1" parent="slloRqsufxbIWbzuCsP2-1">
          <mxGeometry x="640" y="295" width="170" height="30" as="geometry" />
        </mxCell>
        <mxCell id="slloRqsufxbIWbzuCsP2-19" value="作業人数" style="text;html=1;strokeColor=none;fillColor=none;align=center;verticalAlign=middle;whiteSpace=wrap;rounded=0;labelBackgroundColor=none;fontSize=17;" vertex="1" parent="slloRqsufxbIWbzuCsP2-1">
          <mxGeometry x="132" y="350" width="90" height="20" as="geometry" />
        </mxCell>
        <mxCell id="slloRqsufxbIWbzuCsP2-20" value="天気" style="text;html=1;strokeColor=none;fillColor=none;align=center;verticalAlign=middle;whiteSpace=wrap;rounded=0;labelBackgroundColor=none;fontSize=17;" vertex="1" parent="slloRqsufxbIWbzuCsP2-1">
          <mxGeometry x="540" y="350" width="90" height="20" as="geometry" />
        </mxCell>
        <mxCell id="slloRqsufxbIWbzuCsP2-21" value="" style="rounded=0;whiteSpace=wrap;html=1;labelBackgroundColor=none;fontSize=17;" vertex="1" parent="slloRqsufxbIWbzuCsP2-1">
          <mxGeometry x="640" y="345" width="170" height="30" as="geometry" />
        </mxCell>
        <mxCell id="slloRqsufxbIWbzuCsP2-22" value="コメント" style="text;html=1;strokeColor=none;fillColor=none;align=center;verticalAlign=middle;whiteSpace=wrap;rounded=0;labelBackgroundColor=none;fontSize=17;" vertex="1" parent="slloRqsufxbIWbzuCsP2-1">
          <mxGeometry x="140" y="840" width="103" height="20" as="geometry" />
        </mxCell>
        <mxCell id="slloRqsufxbIWbzuCsP2-23" value="" style="rounded=0;whiteSpace=wrap;html=1;labelBackgroundColor=none;fontSize=17;" vertex="1" parent="slloRqsufxbIWbzuCsP2-1">
          <mxGeometry x="160" y="870" width="760" height="100" as="geometry" />
        </mxCell>
        <mxCell id="slloRqsufxbIWbzuCsP2-24" value="実績登録" style="labelPosition=center;verticalLabelPosition=middle;align=center;html=1;shape=mxgraph.basic.shaded_button;dx=10;fillColor=#dae8fc;strokeColor=#6c8ebf;labelBackgroundColor=none;fontSize=17;" vertex="1" parent="slloRqsufxbIWbzuCsP2-1">
          <mxGeometry x="820" y="1020" width="100" height="60" as="geometry" />
        </mxCell>
        <mxCell id="slloRqsufxbIWbzuCsP2-25" value="数量" style="text;html=1;strokeColor=none;fillColor=none;align=center;verticalAlign=middle;whiteSpace=wrap;rounded=0;labelBackgroundColor=none;fontSize=17;" vertex="1" parent="slloRqsufxbIWbzuCsP2-1">
          <mxGeometry x="157" y="740" width="40" height="40" as="geometry" />
        </mxCell>
        <mxCell id="slloRqsufxbIWbzuCsP2-26" value="" style="rounded=0;whiteSpace=wrap;html=1;labelBackgroundColor=none;fontSize=17;" vertex="1" parent="slloRqsufxbIWbzuCsP2-1">
          <mxGeometry x="230" y="745" width="170" height="30" as="geometry" />
        </mxCell>
        <mxCell id="slloRqsufxbIWbzuCsP2-27" value="出荷単価" style="text;html=1;strokeColor=none;fillColor=none;align=center;verticalAlign=middle;whiteSpace=wrap;rounded=0;labelBackgroundColor=none;fontSize=17;" vertex="1" parent="slloRqsufxbIWbzuCsP2-1">
          <mxGeometry x="540" y="755" width="90" height="20" as="geometry" />
        </mxCell>
        <mxCell id="slloRqsufxbIWbzuCsP2-28" value="" style="rounded=0;whiteSpace=wrap;html=1;labelBackgroundColor=none;fontSize=17;" vertex="1" parent="slloRqsufxbIWbzuCsP2-1">
          <mxGeometry x="640" y="750" width="170" height="30" as="geometry" />
        </mxCell>
      </root>
    </mxGraphModel>
  </diagram>
  <diagram id="7qE7UzNlM-zPQ9TGzTsE" name="画面遷移図">
    <mxGraphModel dx="1422" dy="1931" grid="1" gridSize="10" guides="1" tooltips="1" connect="1" arrows="1" fold="1" page="1" pageScale="1" pageWidth="827" pageHeight="1169" math="0" shadow="0">
      <root>
        <mxCell id="A-rtP3VNYEhU5pNC43aF-0" />
        <mxCell id="A-rtP3VNYEhU5pNC43aF-1" parent="A-rtP3VNYEhU5pNC43aF-0" />
        <mxCell id="A-rtP3VNYEhU5pNC43aF-2" value="" style="whiteSpace=wrap;html=1;rounded=0;shadow=0;labelBackgroundColor=none;strokeColor=#000000;strokeWidth=1;fillColor=none;fontFamily=Verdana;fontSize=12;fontColor=#000000;align=center;comic=1;" vertex="1" parent="A-rtP3VNYEhU5pNC43aF-1">
          <mxGeometry x="20" y="10" width="1060" height="810" as="geometry" />
        </mxCell>
        <mxCell id="A-rtP3VNYEhU5pNC43aF-3" value="LOGO" style="whiteSpace=wrap;html=1;rounded=0;shadow=0;labelBackgroundColor=none;strokeWidth=1;fontFamily=Verdana;fontSize=28;align=center;comic=1;" vertex="1" parent="A-rtP3VNYEhU5pNC43aF-1">
          <mxGeometry x="40" y="60" width="190" height="50" as="geometry" />
        </mxCell>
        <mxCell id="A-rtP3VNYEhU5pNC43aF-4" value="" style="line;strokeWidth=1;html=1;rounded=0;shadow=0;labelBackgroundColor=none;fillColor=none;fontFamily=Verdana;fontSize=14;fontColor=#000000;align=center;comic=1;" vertex="1" parent="A-rtP3VNYEhU5pNC43aF-1">
          <mxGeometry x="20" y="140" width="1060" height="10" as="geometry" />
        </mxCell>
        <mxCell id="A-rtP3VNYEhU5pNC43aF-5" value="農作物" style="text;strokeColor=none;fillColor=none;html=1;fontSize=24;fontStyle=1;verticalAlign=middle;align=center;" vertex="1" parent="A-rtP3VNYEhU5pNC43aF-1">
          <mxGeometry x="85" y="266" width="145" height="54" as="geometry" />
        </mxCell>
        <mxCell id="A-rtP3VNYEhU5pNC43aF-6" value="" style="edgeStyle=none;rounded=0;orthogonalLoop=1;jettySize=auto;html=1;" edge="1" parent="A-rtP3VNYEhU5pNC43aF-1" source="A-rtP3VNYEhU5pNC43aF-7">
          <mxGeometry relative="1" as="geometry">
            <mxPoint x="1240" y="250" as="targetPoint" />
          </mxGeometry>
        </mxCell>
        <mxCell id="A-rtP3VNYEhU5pNC43aF-7" value="&lt;font style=&quot;font-size: 14px&quot;&gt;さくらんぼ&lt;/font&gt;" style="rounded=1;html=1;shadow=0;dashed=0;whiteSpace=wrap;fontSize=10;fillColor=#999999;align=center;strokeColor=#666666;fontColor=#ffffff;strokeWidth=2;labelBackgroundColor=none;direction=west;" vertex="1" parent="A-rtP3VNYEhU5pNC43aF-1">
          <mxGeometry x="150" y="340" width="120" height="40" as="geometry" />
        </mxCell>
        <mxCell id="A-rtP3VNYEhU5pNC43aF-8" value="シャインマスカット" style="rounded=1;html=1;shadow=0;dashed=0;whiteSpace=wrap;fontSize=11;fillColor=#999999;align=center;strokeColor=#666666;fontColor=#ffffff;strokeWidth=2;labelBackgroundColor=none;" vertex="1" parent="A-rtP3VNYEhU5pNC43aF-1">
          <mxGeometry x="150" y="405" width="120" height="40" as="geometry" />
        </mxCell>
        <mxCell id="A-rtP3VNYEhU5pNC43aF-9" value="&lt;font style=&quot;font-size: 14px&quot;&gt;梨&lt;/font&gt;" style="rounded=1;html=1;shadow=0;dashed=0;whiteSpace=wrap;fontSize=10;fillColor=#999999;align=center;strokeColor=#666666;fontColor=#ffffff;strokeWidth=2;labelBackgroundColor=none;" vertex="1" parent="A-rtP3VNYEhU5pNC43aF-1">
          <mxGeometry x="150" y="470" width="120" height="40" as="geometry" />
        </mxCell>
        <mxCell id="A-rtP3VNYEhU5pNC43aF-10" value="アスパラガス" style="rounded=1;html=1;shadow=0;dashed=0;whiteSpace=wrap;fontSize=12;fillColor=#999999;align=center;strokeColor=#666666;fontColor=#ffffff;strokeWidth=2;labelBackgroundColor=none;" vertex="1" parent="A-rtP3VNYEhU5pNC43aF-1">
          <mxGeometry x="150" y="540" width="120" height="40" as="geometry" />
        </mxCell>
        <mxCell id="A-rtP3VNYEhU5pNC43aF-11" style="edgeStyle=orthogonalEdgeStyle;rounded=0;orthogonalLoop=1;jettySize=auto;html=1;exitX=1;exitY=0.5;exitDx=0;exitDy=0;entryX=-0.001;entryY=0.403;entryDx=0;entryDy=0;entryPerimeter=0;fontSize=12;" edge="1" parent="A-rtP3VNYEhU5pNC43aF-1" source="A-rtP3VNYEhU5pNC43aF-12" target="A-rtP3VNYEhU5pNC43aF-102">
          <mxGeometry relative="1" as="geometry" />
        </mxCell>
        <mxCell id="A-rtP3VNYEhU5pNC43aF-12" value="" style="whiteSpace=wrap;html=1;rounded=0;shadow=0;labelBackgroundColor=none;strokeColor=#000000;strokeWidth=1;fillColor=none;fontFamily=Verdana;fontSize=12;fontColor=#000000;align=center;comic=1;" vertex="1" parent="A-rtP3VNYEhU5pNC43aF-1">
          <mxGeometry x="1241" y="5" width="1060" height="870" as="geometry" />
        </mxCell>
        <mxCell id="A-rtP3VNYEhU5pNC43aF-13" value="LOGO" style="whiteSpace=wrap;html=1;rounded=0;shadow=0;labelBackgroundColor=none;strokeWidth=1;fontFamily=Verdana;fontSize=28;align=center;comic=1;" vertex="1" parent="A-rtP3VNYEhU5pNC43aF-1">
          <mxGeometry x="1261" y="50" width="190" height="50" as="geometry" />
        </mxCell>
        <mxCell id="A-rtP3VNYEhU5pNC43aF-14" value="" style="line;strokeWidth=1;html=1;rounded=0;shadow=0;labelBackgroundColor=none;fillColor=none;fontFamily=Verdana;fontSize=14;fontColor=#000000;align=center;comic=1;" vertex="1" parent="A-rtP3VNYEhU5pNC43aF-1">
          <mxGeometry x="1241" y="130" width="1060" height="10" as="geometry" />
        </mxCell>
        <mxCell id="A-rtP3VNYEhU5pNC43aF-15" value="" style="whiteSpace=wrap;html=1;rounded=0;shadow=0;labelBackgroundColor=none;strokeWidth=1;fillColor=none;fontFamily=Verdana;fontSize=12;align=center;comic=1;" vertex="1" parent="A-rtP3VNYEhU5pNC43aF-1">
          <mxGeometry x="1251" y="150" width="1040" height="50" as="geometry" />
        </mxCell>
        <mxCell id="A-rtP3VNYEhU5pNC43aF-16" style="edgeStyle=none;rounded=0;orthogonalLoop=1;jettySize=auto;html=1;entryX=0.858;entryY=-0.003;entryDx=0;entryDy=0;entryPerimeter=0;" edge="1" parent="A-rtP3VNYEhU5pNC43aF-1" source="A-rtP3VNYEhU5pNC43aF-17" target="A-rtP3VNYEhU5pNC43aF-2">
          <mxGeometry relative="1" as="geometry">
            <Array as="points">
              <mxPoint x="2231" y="-160" />
              <mxPoint x="929" y="-160" />
            </Array>
          </mxGeometry>
        </mxCell>
        <mxCell id="A-rtP3VNYEhU5pNC43aF-17" value="TOP画面" style="text;html=1;points=[];align=left;verticalAlign=top;spacingTop=-4;fontSize=14;fontFamily=Verdana" vertex="1" parent="A-rtP3VNYEhU5pNC43aF-1">
          <mxGeometry x="2201" y="165" width="60" height="20" as="geometry" />
        </mxCell>
        <mxCell id="A-rtP3VNYEhU5pNC43aF-18" value="" style="strokeWidth=1;shadow=0;dashed=0;align=center;html=1;shape=mxgraph.mockup.forms.rrect;rSize=5;fillColor=#ffffff;labelBackgroundColor=none;fontSize=20;strokeColor=#E6E6E6;" vertex="1" parent="A-rtP3VNYEhU5pNC43aF-1">
          <mxGeometry x="1281" y="250" width="980" height="600" as="geometry" />
        </mxCell>
        <mxCell id="A-rtP3VNYEhU5pNC43aF-19" value="&lt;h1&gt;2021年　8月&lt;/h1&gt;" style="strokeWidth=1;shadow=0;dashed=0;align=center;html=1;shape=mxgraph.mockup.forms.anchor;fontColor=#999999;" vertex="1" parent="A-rtP3VNYEhU5pNC43aF-18">
          <mxGeometry x="183.75" y="27.42857142857143" width="612.5" height="68.57142857142857" as="geometry" />
        </mxCell>
        <mxCell id="A-rtP3VNYEhU5pNC43aF-20" value="&lt;" style="strokeWidth=1;shadow=0;dashed=0;align=center;html=1;shape=mxgraph.mockup.forms.rrect;rSize=4;strokeColor=#999999;fontColor=#008cff;fontSize=19;fontStyle=1;" vertex="1" parent="A-rtP3VNYEhU5pNC43aF-18">
          <mxGeometry x="61.25" y="35.43" width="132.12" height="54.57" as="geometry" />
        </mxCell>
        <mxCell id="A-rtP3VNYEhU5pNC43aF-21" value="&gt;" style="strokeWidth=1;shadow=0;dashed=0;align=center;html=1;shape=mxgraph.mockup.forms.rrect;rSize=4;strokeColor=#999999;fontColor=#008cff;fontSize=19;fontStyle=1;" vertex="1" parent="A-rtP3VNYEhU5pNC43aF-18">
          <mxGeometry x="786.62" y="35.43" width="132.13" height="52.57" as="geometry" />
        </mxCell>
        <mxCell id="A-rtP3VNYEhU5pNC43aF-22" value="日" style="strokeWidth=1;shadow=0;dashed=0;align=center;html=1;shape=mxgraph.mockup.forms.anchor;fontColor=#999999;" vertex="1" parent="A-rtP3VNYEhU5pNC43aF-18">
          <mxGeometry x="61.25" y="96" width="122.5" height="68.57142857142857" as="geometry" />
        </mxCell>
        <mxCell id="A-rtP3VNYEhU5pNC43aF-23" value="月" style="strokeWidth=1;shadow=0;dashed=0;align=center;html=1;shape=mxgraph.mockup.forms.anchor;fontColor=#999999;" vertex="1" parent="A-rtP3VNYEhU5pNC43aF-18">
          <mxGeometry x="183.75" y="96" width="122.5" height="68.57142857142857" as="geometry" />
        </mxCell>
        <mxCell id="A-rtP3VNYEhU5pNC43aF-24" value="火" style="strokeWidth=1;shadow=0;dashed=0;align=center;html=1;shape=mxgraph.mockup.forms.anchor;fontColor=#999999;" vertex="1" parent="A-rtP3VNYEhU5pNC43aF-18">
          <mxGeometry x="306.25" y="96" width="122.5" height="68.57142857142857" as="geometry" />
        </mxCell>
        <mxCell id="A-rtP3VNYEhU5pNC43aF-25" value="水" style="strokeWidth=1;shadow=0;dashed=0;align=center;html=1;shape=mxgraph.mockup.forms.anchor;fontColor=#999999;" vertex="1" parent="A-rtP3VNYEhU5pNC43aF-18">
          <mxGeometry x="428.75" y="96" width="122.5" height="68.57142857142857" as="geometry" />
        </mxCell>
        <mxCell id="A-rtP3VNYEhU5pNC43aF-26" value="木" style="strokeWidth=1;shadow=0;dashed=0;align=center;html=1;shape=mxgraph.mockup.forms.anchor;fontColor=#999999;" vertex="1" parent="A-rtP3VNYEhU5pNC43aF-18">
          <mxGeometry x="551.25" y="96" width="122.5" height="68.57142857142857" as="geometry" />
        </mxCell>
        <mxCell id="A-rtP3VNYEhU5pNC43aF-27" value="金" style="strokeWidth=1;shadow=0;dashed=0;align=center;html=1;shape=mxgraph.mockup.forms.anchor;fontColor=#999999;" vertex="1" parent="A-rtP3VNYEhU5pNC43aF-18">
          <mxGeometry x="673.75" y="96" width="122.5" height="68.57142857142857" as="geometry" />
        </mxCell>
        <mxCell id="A-rtP3VNYEhU5pNC43aF-28" value="土" style="strokeWidth=1;shadow=0;dashed=0;align=center;html=1;shape=mxgraph.mockup.forms.anchor;fontColor=#999999;" vertex="1" parent="A-rtP3VNYEhU5pNC43aF-18">
          <mxGeometry x="796.25" y="96" width="122.5" height="68.57142857142857" as="geometry" />
        </mxCell>
        <mxCell id="A-rtP3VNYEhU5pNC43aF-29" value="1" style="strokeWidth=1;shadow=0;dashed=0;align=center;html=1;shape=mxgraph.mockup.forms.rrect;rSize=0;strokeColor=#999999;fontColor=#999999;" vertex="1" parent="A-rtP3VNYEhU5pNC43aF-18">
          <mxGeometry x="61.25" y="164.57142857142858" width="122.5" height="68.57142857142857" as="geometry" />
        </mxCell>
        <mxCell id="A-rtP3VNYEhU5pNC43aF-30" value="2" style="strokeWidth=1;shadow=0;dashed=0;align=center;html=1;shape=mxgraph.mockup.forms.rrect;rSize=0;strokeColor=#999999;fontColor=#999999;" vertex="1" parent="A-rtP3VNYEhU5pNC43aF-18">
          <mxGeometry x="183.75" y="164.57142857142858" width="122.5" height="68.57142857142857" as="geometry" />
        </mxCell>
        <mxCell id="A-rtP3VNYEhU5pNC43aF-31" value="3" style="strokeWidth=1;shadow=0;dashed=0;align=center;html=1;shape=mxgraph.mockup.forms.rrect;rSize=0;strokeColor=#999999;fontColor=#999999;" vertex="1" parent="A-rtP3VNYEhU5pNC43aF-18">
          <mxGeometry x="306.25" y="164.57142857142858" width="122.5" height="68.57142857142857" as="geometry" />
        </mxCell>
        <mxCell id="A-rtP3VNYEhU5pNC43aF-32" value="4" style="strokeWidth=1;shadow=0;dashed=0;align=center;html=1;shape=mxgraph.mockup.forms.rrect;rSize=0;strokeColor=#999999;fontColor=#999999;" vertex="1" parent="A-rtP3VNYEhU5pNC43aF-18">
          <mxGeometry x="428.75" y="164.57142857142858" width="122.5" height="68.57142857142857" as="geometry" />
        </mxCell>
        <mxCell id="A-rtP3VNYEhU5pNC43aF-33" value="5" style="strokeWidth=1;shadow=0;dashed=0;align=center;html=1;shape=mxgraph.mockup.forms.rrect;rSize=0;strokeColor=#999999;fontColor=#999999;" vertex="1" parent="A-rtP3VNYEhU5pNC43aF-18">
          <mxGeometry x="551.25" y="164.57142857142858" width="122.5" height="68.57142857142857" as="geometry" />
        </mxCell>
        <mxCell id="A-rtP3VNYEhU5pNC43aF-34" value="6" style="strokeWidth=1;shadow=0;dashed=0;align=center;html=1;shape=mxgraph.mockup.forms.rrect;rSize=0;strokeColor=#999999;fontColor=#999999;" vertex="1" parent="A-rtP3VNYEhU5pNC43aF-18">
          <mxGeometry x="673.75" y="164.57142857142858" width="122.5" height="68.57142857142857" as="geometry" />
        </mxCell>
        <mxCell id="A-rtP3VNYEhU5pNC43aF-35" value="7" style="strokeWidth=1;shadow=0;dashed=0;align=center;html=1;shape=mxgraph.mockup.forms.rrect;rSize=0;strokeColor=#999999;fontColor=#999999;" vertex="1" parent="A-rtP3VNYEhU5pNC43aF-18">
          <mxGeometry x="796.25" y="164.57142857142858" width="122.5" height="68.57142857142857" as="geometry" />
        </mxCell>
        <mxCell id="A-rtP3VNYEhU5pNC43aF-36" value="8" style="strokeWidth=1;shadow=0;dashed=0;align=center;html=1;shape=mxgraph.mockup.forms.rrect;rSize=0;strokeColor=#999999;fontColor=#999999;" vertex="1" parent="A-rtP3VNYEhU5pNC43aF-18">
          <mxGeometry x="61.25" y="233.1428571428572" width="122.5" height="68.57142857142857" as="geometry" />
        </mxCell>
        <mxCell id="A-rtP3VNYEhU5pNC43aF-37" value="9" style="strokeWidth=1;shadow=0;dashed=0;align=center;html=1;shape=mxgraph.mockup.forms.rrect;rSize=0;strokeColor=#999999;fontColor=#999999;" vertex="1" parent="A-rtP3VNYEhU5pNC43aF-18">
          <mxGeometry x="183.75" y="233.1428571428572" width="122.5" height="68.57142857142857" as="geometry" />
        </mxCell>
        <mxCell id="A-rtP3VNYEhU5pNC43aF-38" value="10" style="strokeWidth=1;shadow=0;dashed=0;align=center;html=1;shape=mxgraph.mockup.forms.rrect;rSize=0;strokeColor=#999999;fontColor=#999999;" vertex="1" parent="A-rtP3VNYEhU5pNC43aF-18">
          <mxGeometry x="306.25" y="233.1428571428572" width="122.5" height="68.57142857142857" as="geometry" />
        </mxCell>
        <mxCell id="A-rtP3VNYEhU5pNC43aF-39" value="11" style="strokeWidth=1;shadow=0;dashed=0;align=center;html=1;shape=mxgraph.mockup.forms.rrect;rSize=0;strokeColor=#999999;fontColor=#999999;" vertex="1" parent="A-rtP3VNYEhU5pNC43aF-18">
          <mxGeometry x="428.75" y="233.1428571428572" width="122.5" height="68.57142857142857" as="geometry" />
        </mxCell>
        <mxCell id="A-rtP3VNYEhU5pNC43aF-40" value="12" style="strokeWidth=1;shadow=0;dashed=0;align=center;html=1;shape=mxgraph.mockup.forms.rrect;rSize=0;strokeColor=#999999;fontColor=#999999;" vertex="1" parent="A-rtP3VNYEhU5pNC43aF-18">
          <mxGeometry x="551.25" y="233.1428571428572" width="122.5" height="68.57142857142857" as="geometry" />
        </mxCell>
        <mxCell id="A-rtP3VNYEhU5pNC43aF-41" value="13" style="strokeWidth=1;shadow=0;dashed=0;align=center;html=1;shape=mxgraph.mockup.forms.rrect;rSize=0;strokeColor=#999999;fontColor=#999999;" vertex="1" parent="A-rtP3VNYEhU5pNC43aF-18">
          <mxGeometry x="673.75" y="233.1428571428572" width="122.5" height="68.57142857142857" as="geometry" />
        </mxCell>
        <mxCell id="A-rtP3VNYEhU5pNC43aF-42" value="14" style="strokeWidth=1;shadow=0;dashed=0;align=center;html=1;shape=mxgraph.mockup.forms.rrect;rSize=0;strokeColor=#999999;fontColor=#999999;" vertex="1" parent="A-rtP3VNYEhU5pNC43aF-18">
          <mxGeometry x="796.25" y="233.1428571428572" width="122.5" height="68.57142857142857" as="geometry" />
        </mxCell>
        <mxCell id="A-rtP3VNYEhU5pNC43aF-43" value="15" style="strokeWidth=1;shadow=0;dashed=0;align=center;html=1;shape=mxgraph.mockup.forms.rrect;rSize=0;strokeColor=#999999;fontColor=#999999;" vertex="1" parent="A-rtP3VNYEhU5pNC43aF-18">
          <mxGeometry x="61.25" y="301.7142857142857" width="122.5" height="68.57142857142857" as="geometry" />
        </mxCell>
        <mxCell id="A-rtP3VNYEhU5pNC43aF-44" value="16" style="strokeWidth=1;shadow=0;dashed=0;align=center;html=1;shape=mxgraph.mockup.forms.rrect;rSize=0;strokeColor=#999999;fontColor=#999999;" vertex="1" parent="A-rtP3VNYEhU5pNC43aF-18">
          <mxGeometry x="183.75" y="301.7142857142857" width="122.5" height="68.57142857142857" as="geometry" />
        </mxCell>
        <mxCell id="A-rtP3VNYEhU5pNC43aF-45" value="17" style="strokeWidth=1;shadow=0;dashed=0;align=center;html=1;shape=mxgraph.mockup.forms.rrect;rSize=0;strokeColor=#999999;fontColor=#999999;" vertex="1" parent="A-rtP3VNYEhU5pNC43aF-18">
          <mxGeometry x="306.25" y="301.7142857142857" width="122.5" height="68.57142857142857" as="geometry" />
        </mxCell>
        <mxCell id="A-rtP3VNYEhU5pNC43aF-46" value="18" style="strokeWidth=1;shadow=0;dashed=0;align=center;html=1;shape=mxgraph.mockup.forms.rrect;rSize=0;strokeColor=#999999;fontColor=#999999;" vertex="1" parent="A-rtP3VNYEhU5pNC43aF-18">
          <mxGeometry x="428.75" y="301.7142857142857" width="122.5" height="68.57142857142857" as="geometry" />
        </mxCell>
        <mxCell id="A-rtP3VNYEhU5pNC43aF-47" value="19" style="strokeWidth=1;shadow=0;dashed=0;align=center;html=1;shape=mxgraph.mockup.forms.rrect;rSize=0;strokeColor=#999999;fontColor=#999999;" vertex="1" parent="A-rtP3VNYEhU5pNC43aF-18">
          <mxGeometry x="551.25" y="301.7142857142857" width="122.5" height="68.57142857142857" as="geometry" />
        </mxCell>
        <mxCell id="A-rtP3VNYEhU5pNC43aF-48" value="20" style="strokeWidth=1;shadow=0;dashed=0;align=center;html=1;shape=mxgraph.mockup.forms.rrect;rSize=0;strokeColor=#999999;fontColor=#999999;" vertex="1" parent="A-rtP3VNYEhU5pNC43aF-18">
          <mxGeometry x="673.75" y="302.00428571428574" width="122.5" height="68.57142857142857" as="geometry" />
        </mxCell>
        <mxCell id="A-rtP3VNYEhU5pNC43aF-49" value="21" style="strokeWidth=1;shadow=0;dashed=0;align=center;html=1;shape=mxgraph.mockup.forms.rrect;rSize=0;strokeColor=#999999;fontColor=#999999;" vertex="1" parent="A-rtP3VNYEhU5pNC43aF-18">
          <mxGeometry x="796.25" y="301.7142857142857" width="122.5" height="68.57142857142857" as="geometry" />
        </mxCell>
        <mxCell id="A-rtP3VNYEhU5pNC43aF-50" value="22" style="strokeWidth=1;shadow=0;dashed=0;align=center;html=1;shape=mxgraph.mockup.forms.rrect;rSize=0;strokeColor=#999999;fontColor=#999999;" vertex="1" parent="A-rtP3VNYEhU5pNC43aF-18">
          <mxGeometry x="61.25" y="370.2857142857143" width="122.5" height="68.57142857142857" as="geometry" />
        </mxCell>
        <mxCell id="A-rtP3VNYEhU5pNC43aF-51" value="23" style="strokeWidth=1;shadow=0;dashed=0;align=center;html=1;shape=mxgraph.mockup.forms.rrect;rSize=0;strokeColor=#999999;fontColor=#999999;" vertex="1" parent="A-rtP3VNYEhU5pNC43aF-18">
          <mxGeometry x="183.75" y="370.2857142857143" width="122.5" height="68.57142857142857" as="geometry" />
        </mxCell>
        <mxCell id="A-rtP3VNYEhU5pNC43aF-52" value="25" style="strokeWidth=1;shadow=0;dashed=0;align=center;html=1;shape=mxgraph.mockup.forms.rrect;rSize=0;fontColor=#999999;strokeColor=#CCCCCC;" vertex="1" parent="A-rtP3VNYEhU5pNC43aF-18">
          <mxGeometry x="428.75" y="370.2857142857143" width="122.5" height="68.57142857142857" as="geometry" />
        </mxCell>
        <mxCell id="A-rtP3VNYEhU5pNC43aF-53" value="26" style="strokeWidth=1;shadow=0;dashed=0;align=center;html=1;shape=mxgraph.mockup.forms.rrect;rSize=0;strokeColor=#999999;fontColor=#999999;" vertex="1" parent="A-rtP3VNYEhU5pNC43aF-18">
          <mxGeometry x="551.25" y="370.2857142857143" width="122.5" height="68.57142857142857" as="geometry" />
        </mxCell>
        <mxCell id="A-rtP3VNYEhU5pNC43aF-54" value="27" style="strokeWidth=1;shadow=0;dashed=0;align=center;html=1;shape=mxgraph.mockup.forms.rrect;rSize=0;strokeColor=#999999;fontColor=#999999;" vertex="1" parent="A-rtP3VNYEhU5pNC43aF-18">
          <mxGeometry x="673.75" y="370.2857142857143" width="122.5" height="68.57142857142857" as="geometry" />
        </mxCell>
        <mxCell id="A-rtP3VNYEhU5pNC43aF-55" value="28" style="strokeWidth=1;shadow=0;dashed=0;align=center;html=1;shape=mxgraph.mockup.forms.rrect;rSize=0;strokeColor=#999999;fontColor=#999999;" vertex="1" parent="A-rtP3VNYEhU5pNC43aF-18">
          <mxGeometry x="796.25" y="370.2857142857143" width="122.5" height="68.57142857142857" as="geometry" />
        </mxCell>
        <mxCell id="A-rtP3VNYEhU5pNC43aF-56" value="29" style="strokeWidth=1;shadow=0;dashed=0;align=center;html=1;shape=mxgraph.mockup.forms.rrect;rSize=0;strokeColor=#999999;fontColor=#999999;" vertex="1" parent="A-rtP3VNYEhU5pNC43aF-18">
          <mxGeometry x="61.25" y="438.8571428571429" width="122.5" height="68.57142857142857" as="geometry" />
        </mxCell>
        <mxCell id="A-rtP3VNYEhU5pNC43aF-57" value="30" style="strokeWidth=1;shadow=0;dashed=0;align=center;html=1;shape=mxgraph.mockup.forms.rrect;rSize=0;strokeColor=#999999;fontColor=#999999;" vertex="1" parent="A-rtP3VNYEhU5pNC43aF-18">
          <mxGeometry x="183.75" y="438.8571428571429" width="122.5" height="68.57142857142857" as="geometry" />
        </mxCell>
        <mxCell id="A-rtP3VNYEhU5pNC43aF-58" value="31" style="strokeWidth=1;shadow=0;dashed=0;align=center;html=1;shape=mxgraph.mockup.forms.rrect;rSize=0;strokeColor=#999999;fontColor=#999999;" vertex="1" parent="A-rtP3VNYEhU5pNC43aF-18">
          <mxGeometry x="306.25" y="438.8571428571429" width="122.5" height="68.57142857142857" as="geometry" />
        </mxCell>
        <mxCell id="A-rtP3VNYEhU5pNC43aF-59" value="1" style="strokeWidth=1;shadow=0;dashed=0;align=center;html=1;shape=mxgraph.mockup.forms.rrect;rSize=0;strokeColor=#999999;fontColor=#999999;fillColor=none;" vertex="1" parent="A-rtP3VNYEhU5pNC43aF-18">
          <mxGeometry x="428.75" y="438.8571428571429" width="122.5" height="68.57142857142857" as="geometry" />
        </mxCell>
        <mxCell id="A-rtP3VNYEhU5pNC43aF-60" value="2" style="strokeWidth=1;shadow=0;dashed=0;align=center;html=1;shape=mxgraph.mockup.forms.rrect;rSize=0;strokeColor=#999999;fontColor=#999999;fillColor=none;" vertex="1" parent="A-rtP3VNYEhU5pNC43aF-18">
          <mxGeometry x="551.25" y="438.8571428571429" width="122.5" height="68.57142857142857" as="geometry" />
        </mxCell>
        <mxCell id="A-rtP3VNYEhU5pNC43aF-61" value="3" style="strokeWidth=1;shadow=0;dashed=0;align=center;html=1;shape=mxgraph.mockup.forms.rrect;rSize=0;strokeColor=#999999;fontColor=#999999;fillColor=none;" vertex="1" parent="A-rtP3VNYEhU5pNC43aF-18">
          <mxGeometry x="673.75" y="438.8571428571429" width="122.5" height="68.57142857142857" as="geometry" />
        </mxCell>
        <mxCell id="A-rtP3VNYEhU5pNC43aF-62" value="4" style="strokeWidth=1;shadow=0;dashed=0;align=center;html=1;shape=mxgraph.mockup.forms.rrect;rSize=0;strokeColor=#999999;fontColor=#999999;fillColor=none;" vertex="1" parent="A-rtP3VNYEhU5pNC43aF-18">
          <mxGeometry x="796.25" y="438.8571428571429" width="122.5" height="68.57142857142857" as="geometry" />
        </mxCell>
        <mxCell id="A-rtP3VNYEhU5pNC43aF-63" value="5" style="strokeWidth=1;shadow=0;dashed=0;align=center;html=1;shape=mxgraph.mockup.forms.rrect;rSize=0;strokeColor=#999999;fontColor=#999999;fillColor=none;" vertex="1" parent="A-rtP3VNYEhU5pNC43aF-18">
          <mxGeometry x="61.25" y="507.42857142857144" width="122.5" height="68.57142857142857" as="geometry" />
        </mxCell>
        <mxCell id="A-rtP3VNYEhU5pNC43aF-64" value="6" style="strokeWidth=1;shadow=0;dashed=0;align=center;html=1;shape=mxgraph.mockup.forms.rrect;rSize=0;strokeColor=#999999;fontColor=#999999;fillColor=none;" vertex="1" parent="A-rtP3VNYEhU5pNC43aF-18">
          <mxGeometry x="183.75" y="507.42857142857144" width="122.5" height="68.57142857142857" as="geometry" />
        </mxCell>
        <mxCell id="A-rtP3VNYEhU5pNC43aF-65" value="7" style="strokeWidth=1;shadow=0;dashed=0;align=center;html=1;shape=mxgraph.mockup.forms.rrect;rSize=0;strokeColor=#999999;fontColor=#999999;fillColor=none;" vertex="1" parent="A-rtP3VNYEhU5pNC43aF-18">
          <mxGeometry x="306.25" y="507.42857142857144" width="122.5" height="68.57142857142857" as="geometry" />
        </mxCell>
        <mxCell id="A-rtP3VNYEhU5pNC43aF-66" value="8" style="strokeWidth=1;shadow=0;dashed=0;align=center;html=1;shape=mxgraph.mockup.forms.rrect;rSize=0;strokeColor=#999999;fontColor=#999999;fillColor=none;" vertex="1" parent="A-rtP3VNYEhU5pNC43aF-18">
          <mxGeometry x="428.75" y="507.42857142857144" width="122.5" height="68.57142857142857" as="geometry" />
        </mxCell>
        <mxCell id="A-rtP3VNYEhU5pNC43aF-67" value="9" style="strokeWidth=1;shadow=0;dashed=0;align=center;html=1;shape=mxgraph.mockup.forms.rrect;rSize=0;strokeColor=#999999;fontColor=#999999;fillColor=none;" vertex="1" parent="A-rtP3VNYEhU5pNC43aF-18">
          <mxGeometry x="551.25" y="507.42857142857144" width="122.5" height="68.57142857142857" as="geometry" />
        </mxCell>
        <mxCell id="A-rtP3VNYEhU5pNC43aF-68" value="10" style="strokeWidth=1;shadow=0;dashed=0;align=center;html=1;shape=mxgraph.mockup.forms.rrect;rSize=0;strokeColor=#999999;fontColor=#999999;fillColor=none;" vertex="1" parent="A-rtP3VNYEhU5pNC43aF-18">
          <mxGeometry x="673.75" y="507.42857142857144" width="122.5" height="68.57142857142857" as="geometry" />
        </mxCell>
        <mxCell id="A-rtP3VNYEhU5pNC43aF-69" value="11" style="strokeWidth=1;shadow=0;dashed=0;align=center;html=1;shape=mxgraph.mockup.forms.rrect;rSize=0;strokeColor=#999999;fontColor=#999999;fillColor=none;" vertex="1" parent="A-rtP3VNYEhU5pNC43aF-18">
          <mxGeometry x="796.25" y="507.42857142857144" width="122.5" height="68.57142857142857" as="geometry" />
        </mxCell>
        <mxCell id="A-rtP3VNYEhU5pNC43aF-70" value="24" style="strokeWidth=1;shadow=0;dashed=0;align=center;html=1;shape=mxgraph.mockup.forms.rrect;rSize=0;strokeWidth=2;strokeColor=#B3B3B3;" vertex="1" parent="A-rtP3VNYEhU5pNC43aF-18">
          <mxGeometry x="306.25" y="370.2857142857143" width="122.5" height="68.57142857142857" as="geometry" />
        </mxCell>
        <mxCell id="A-rtP3VNYEhU5pNC43aF-71" value="&lt;h1 style=&quot;font-size: 18px&quot;&gt;農作物予定表&lt;/h1&gt;" style="text;html=1;strokeColor=none;fillColor=none;align=center;verticalAlign=middle;whiteSpace=wrap;rounded=0;labelBackgroundColor=none;fontSize=18;" vertex="1" parent="A-rtP3VNYEhU5pNC43aF-1">
          <mxGeometry x="1271" y="218" width="150" height="20" as="geometry" />
        </mxCell>
        <mxCell id="A-rtP3VNYEhU5pNC43aF-72" value="" style="whiteSpace=wrap;html=1;rounded=0;shadow=0;labelBackgroundColor=none;strokeColor=#000000;strokeWidth=1;fillColor=none;fontFamily=Verdana;fontSize=12;fontColor=#000000;align=center;comic=1;" vertex="1" parent="A-rtP3VNYEhU5pNC43aF-1">
          <mxGeometry x="3680" width="1060" height="1090" as="geometry" />
        </mxCell>
        <mxCell id="A-rtP3VNYEhU5pNC43aF-73" value="LOGO" style="whiteSpace=wrap;html=1;rounded=0;shadow=0;labelBackgroundColor=none;strokeWidth=1;fontFamily=Verdana;fontSize=28;align=center;comic=1;" vertex="1" parent="A-rtP3VNYEhU5pNC43aF-1">
          <mxGeometry x="3700" y="20" width="190" height="50" as="geometry" />
        </mxCell>
        <mxCell id="A-rtP3VNYEhU5pNC43aF-74" value="" style="line;strokeWidth=1;html=1;rounded=0;shadow=0;labelBackgroundColor=none;fillColor=none;fontFamily=Verdana;fontSize=14;fontColor=#000000;align=center;comic=1;" vertex="1" parent="A-rtP3VNYEhU5pNC43aF-1">
          <mxGeometry x="3680" y="100" width="1060" height="10" as="geometry" />
        </mxCell>
        <mxCell id="A-rtP3VNYEhU5pNC43aF-75" value="" style="whiteSpace=wrap;html=1;rounded=0;shadow=0;labelBackgroundColor=none;strokeWidth=1;fillColor=none;fontFamily=Verdana;fontSize=12;align=center;comic=1;" vertex="1" parent="A-rtP3VNYEhU5pNC43aF-1">
          <mxGeometry x="3690" y="120" width="1040" height="50" as="geometry" />
        </mxCell>
        <mxCell id="A-rtP3VNYEhU5pNC43aF-76" style="edgeStyle=none;rounded=0;orthogonalLoop=1;jettySize=auto;html=1;entryX=1;entryY=0;entryDx=0;entryDy=0;" edge="1" parent="A-rtP3VNYEhU5pNC43aF-1" source="A-rtP3VNYEhU5pNC43aF-77" target="A-rtP3VNYEhU5pNC43aF-2">
          <mxGeometry relative="1" as="geometry">
            <Array as="points">
              <mxPoint x="4680" y="-100" />
              <mxPoint x="1080" y="-90" />
            </Array>
          </mxGeometry>
        </mxCell>
        <mxCell id="A-rtP3VNYEhU5pNC43aF-77" value="top画面" style="text;html=1;points=[];align=left;verticalAlign=top;spacingTop=-4;fontSize=14;fontFamily=Verdana" vertex="1" parent="A-rtP3VNYEhU5pNC43aF-1">
          <mxGeometry x="4650" y="135" width="60" height="20" as="geometry" />
        </mxCell>
        <mxCell id="A-rtP3VNYEhU5pNC43aF-78" value="農作物管理" style="text;html=1;strokeColor=none;fillColor=none;align=center;verticalAlign=middle;whiteSpace=wrap;rounded=0;labelBackgroundColor=none;fontSize=20;fontStyle=1" vertex="1" parent="A-rtP3VNYEhU5pNC43aF-1">
          <mxGeometry x="3790" y="200" width="140" height="30" as="geometry" />
        </mxCell>
        <mxCell id="A-rtP3VNYEhU5pNC43aF-79" value="日付" style="text;html=1;strokeColor=none;fillColor=none;align=center;verticalAlign=middle;whiteSpace=wrap;rounded=0;labelBackgroundColor=none;fontSize=17;" vertex="1" parent="A-rtP3VNYEhU5pNC43aF-1">
          <mxGeometry x="3814" y="260" width="40" height="20" as="geometry" />
        </mxCell>
        <mxCell id="A-rtP3VNYEhU5pNC43aF-80" value="" style="rounded=0;whiteSpace=wrap;html=1;labelBackgroundColor=none;fontSize=17;" vertex="1" parent="A-rtP3VNYEhU5pNC43aF-1">
          <mxGeometry x="3890" y="255" width="170" height="30" as="geometry" />
        </mxCell>
        <mxCell id="A-rtP3VNYEhU5pNC43aF-81" value="作業内容" style="text;html=1;strokeColor=none;fillColor=none;align=center;verticalAlign=middle;whiteSpace=wrap;rounded=0;labelBackgroundColor=none;fontSize=17;" vertex="1" parent="A-rtP3VNYEhU5pNC43aF-1">
          <mxGeometry x="3792" y="360" width="90" height="20" as="geometry" />
        </mxCell>
        <mxCell id="A-rtP3VNYEhU5pNC43aF-82" value="" style="rounded=0;whiteSpace=wrap;html=1;labelBackgroundColor=none;fontSize=17;" vertex="1" parent="A-rtP3VNYEhU5pNC43aF-1">
          <mxGeometry x="3820" y="390" width="760" height="180" as="geometry" />
        </mxCell>
        <mxCell id="A-rtP3VNYEhU5pNC43aF-83" value="資材" style="text;html=1;strokeColor=none;fillColor=none;align=center;verticalAlign=middle;whiteSpace=wrap;rounded=0;labelBackgroundColor=none;fontSize=17;" vertex="1" parent="A-rtP3VNYEhU5pNC43aF-1">
          <mxGeometry x="3816" y="590" width="40" height="20" as="geometry" />
        </mxCell>
        <mxCell id="A-rtP3VNYEhU5pNC43aF-84" value="" style="rounded=0;whiteSpace=wrap;html=1;labelBackgroundColor=none;fontSize=17;" vertex="1" parent="A-rtP3VNYEhU5pNC43aF-1">
          <mxGeometry x="3820" y="620" width="760" height="60" as="geometry" />
        </mxCell>
        <mxCell id="A-rtP3VNYEhU5pNC43aF-85" style="edgeStyle=none;rounded=0;orthogonalLoop=1;jettySize=auto;html=1;exitX=0.527;exitY=1;exitDx=0;exitDy=0;exitPerimeter=0;" edge="1" parent="A-rtP3VNYEhU5pNC43aF-1" source="A-rtP3VNYEhU5pNC43aF-102" target="A-rtP3VNYEhU5pNC43aF-86">
          <mxGeometry relative="1" as="geometry">
            <Array as="points">
              <mxPoint x="3040" y="1180" />
              <mxPoint x="4270" y="1190" />
            </Array>
          </mxGeometry>
        </mxCell>
        <mxCell id="A-rtP3VNYEhU5pNC43aF-86" value="予定登録" style="labelPosition=center;verticalLabelPosition=middle;align=center;html=1;shape=mxgraph.basic.shaded_button;dx=10;fillColor=#dae8fc;strokeColor=#6c8ebf;labelBackgroundColor=none;fontSize=17;" vertex="1" parent="A-rtP3VNYEhU5pNC43aF-1">
          <mxGeometry x="4220" y="980" width="100" height="60" as="geometry" />
        </mxCell>
        <mxCell id="A-rtP3VNYEhU5pNC43aF-87" value="予定削除" style="labelPosition=center;verticalLabelPosition=middle;align=center;html=1;shape=mxgraph.basic.shaded_button;dx=10;fillColor=#dae8fc;strokeColor=#6c8ebf;labelBackgroundColor=none;fontSize=17;" vertex="1" parent="A-rtP3VNYEhU5pNC43aF-1">
          <mxGeometry x="4350" y="980" width="100" height="60" as="geometry" />
        </mxCell>
        <mxCell id="A-rtP3VNYEhU5pNC43aF-88" value="" style="rounded=0;whiteSpace=wrap;html=1;labelBackgroundColor=none;fontSize=17;" vertex="1" parent="A-rtP3VNYEhU5pNC43aF-1">
          <mxGeometry x="3890" y="305" width="170" height="30" as="geometry" />
        </mxCell>
        <mxCell id="A-rtP3VNYEhU5pNC43aF-89" value="作業時間" style="text;html=1;strokeColor=none;fillColor=none;align=center;verticalAlign=middle;whiteSpace=wrap;rounded=0;labelBackgroundColor=none;fontSize=17;" vertex="1" parent="A-rtP3VNYEhU5pNC43aF-1">
          <mxGeometry x="4200" y="260" width="85" height="20" as="geometry" />
        </mxCell>
        <mxCell id="A-rtP3VNYEhU5pNC43aF-90" value="" style="rounded=0;whiteSpace=wrap;html=1;labelBackgroundColor=none;fontSize=17;" vertex="1" parent="A-rtP3VNYEhU5pNC43aF-1">
          <mxGeometry x="4300" y="255" width="170" height="30" as="geometry" />
        </mxCell>
        <mxCell id="A-rtP3VNYEhU5pNC43aF-91" value="作業人数" style="text;html=1;strokeColor=none;fillColor=none;align=center;verticalAlign=middle;whiteSpace=wrap;rounded=0;labelBackgroundColor=none;fontSize=17;" vertex="1" parent="A-rtP3VNYEhU5pNC43aF-1">
          <mxGeometry x="3792" y="310" width="90" height="20" as="geometry" />
        </mxCell>
        <mxCell id="A-rtP3VNYEhU5pNC43aF-92" value="天気" style="text;html=1;strokeColor=none;fillColor=none;align=center;verticalAlign=middle;whiteSpace=wrap;rounded=0;labelBackgroundColor=none;fontSize=17;" vertex="1" parent="A-rtP3VNYEhU5pNC43aF-1">
          <mxGeometry x="4200" y="310" width="90" height="20" as="geometry" />
        </mxCell>
        <mxCell id="A-rtP3VNYEhU5pNC43aF-93" value="" style="rounded=0;whiteSpace=wrap;html=1;labelBackgroundColor=none;fontSize=17;" vertex="1" parent="A-rtP3VNYEhU5pNC43aF-1">
          <mxGeometry x="4300" y="305" width="170" height="30" as="geometry" />
        </mxCell>
        <mxCell id="A-rtP3VNYEhU5pNC43aF-94" value="コメント" style="text;html=1;strokeColor=none;fillColor=none;align=center;verticalAlign=middle;whiteSpace=wrap;rounded=0;labelBackgroundColor=none;fontSize=17;" vertex="1" parent="A-rtP3VNYEhU5pNC43aF-1">
          <mxGeometry x="3800" y="800" width="103" height="20" as="geometry" />
        </mxCell>
        <mxCell id="A-rtP3VNYEhU5pNC43aF-95" value="" style="rounded=0;whiteSpace=wrap;html=1;labelBackgroundColor=none;fontSize=17;" vertex="1" parent="A-rtP3VNYEhU5pNC43aF-1">
          <mxGeometry x="3820" y="830" width="760" height="100" as="geometry" />
        </mxCell>
        <mxCell id="A-rtP3VNYEhU5pNC43aF-96" style="edgeStyle=none;rounded=0;orthogonalLoop=1;jettySize=auto;html=1;entryX=0.321;entryY=1.001;entryDx=0;entryDy=0;entryPerimeter=0;" edge="1" parent="A-rtP3VNYEhU5pNC43aF-1" source="A-rtP3VNYEhU5pNC43aF-97" target="A-rtP3VNYEhU5pNC43aF-102">
          <mxGeometry relative="1" as="geometry">
            <Array as="points">
              <mxPoint x="4530" y="1320" />
              <mxPoint x="2820" y="1320" />
            </Array>
          </mxGeometry>
        </mxCell>
        <mxCell id="A-rtP3VNYEhU5pNC43aF-97" value="実績登録" style="labelPosition=center;verticalLabelPosition=middle;align=center;html=1;shape=mxgraph.basic.shaded_button;dx=10;fillColor=#dae8fc;strokeColor=#6c8ebf;labelBackgroundColor=none;fontSize=17;" vertex="1" parent="A-rtP3VNYEhU5pNC43aF-1">
          <mxGeometry x="4480" y="980" width="100" height="60" as="geometry" />
        </mxCell>
        <mxCell id="A-rtP3VNYEhU5pNC43aF-98" value="数量" style="text;html=1;strokeColor=none;fillColor=none;align=center;verticalAlign=middle;whiteSpace=wrap;rounded=0;labelBackgroundColor=none;fontSize=17;" vertex="1" parent="A-rtP3VNYEhU5pNC43aF-1">
          <mxGeometry x="3817" y="700" width="40" height="40" as="geometry" />
        </mxCell>
        <mxCell id="A-rtP3VNYEhU5pNC43aF-99" value="" style="rounded=0;whiteSpace=wrap;html=1;labelBackgroundColor=none;fontSize=17;" vertex="1" parent="A-rtP3VNYEhU5pNC43aF-1">
          <mxGeometry x="3890" y="705" width="170" height="30" as="geometry" />
        </mxCell>
        <mxCell id="A-rtP3VNYEhU5pNC43aF-100" value="出荷単価" style="text;html=1;strokeColor=none;fillColor=none;align=center;verticalAlign=middle;whiteSpace=wrap;rounded=0;labelBackgroundColor=none;fontSize=17;" vertex="1" parent="A-rtP3VNYEhU5pNC43aF-1">
          <mxGeometry x="4200" y="715" width="90" height="20" as="geometry" />
        </mxCell>
        <mxCell id="A-rtP3VNYEhU5pNC43aF-101" value="" style="rounded=0;whiteSpace=wrap;html=1;labelBackgroundColor=none;fontSize=17;" vertex="1" parent="A-rtP3VNYEhU5pNC43aF-1">
          <mxGeometry x="4300" y="710" width="170" height="30" as="geometry" />
        </mxCell>
        <mxCell id="A-rtP3VNYEhU5pNC43aF-102" value="" style="whiteSpace=wrap;html=1;rounded=0;shadow=0;labelBackgroundColor=none;strokeColor=#000000;strokeWidth=1;fillColor=none;fontFamily=Verdana;fontSize=12;fontColor=#000000;align=center;comic=1;" vertex="1" parent="A-rtP3VNYEhU5pNC43aF-1">
          <mxGeometry x="2481" width="1060" height="1090" as="geometry" />
        </mxCell>
        <mxCell id="A-rtP3VNYEhU5pNC43aF-103" value="LOGO" style="whiteSpace=wrap;html=1;rounded=0;shadow=0;labelBackgroundColor=none;strokeWidth=1;fontFamily=Verdana;fontSize=28;align=center;comic=1;" vertex="1" parent="A-rtP3VNYEhU5pNC43aF-1">
          <mxGeometry x="2501" y="20" width="190" height="50" as="geometry" />
        </mxCell>
        <mxCell id="A-rtP3VNYEhU5pNC43aF-104" value="" style="line;strokeWidth=1;html=1;rounded=0;shadow=0;labelBackgroundColor=none;fillColor=none;fontFamily=Verdana;fontSize=14;fontColor=#000000;align=center;comic=1;" vertex="1" parent="A-rtP3VNYEhU5pNC43aF-1">
          <mxGeometry x="2481" y="100" width="1060" height="10" as="geometry" />
        </mxCell>
        <mxCell id="A-rtP3VNYEhU5pNC43aF-105" value="" style="whiteSpace=wrap;html=1;rounded=0;shadow=0;labelBackgroundColor=none;strokeWidth=1;fillColor=none;fontFamily=Verdana;fontSize=12;align=center;comic=1;" vertex="1" parent="A-rtP3VNYEhU5pNC43aF-1">
          <mxGeometry x="2491" y="120" width="1040" height="50" as="geometry" />
        </mxCell>
        <mxCell id="A-rtP3VNYEhU5pNC43aF-106" style="edgeStyle=none;rounded=0;orthogonalLoop=1;jettySize=auto;html=1;entryX=0.673;entryY=-0.005;entryDx=0;entryDy=0;entryPerimeter=0;" edge="1" parent="A-rtP3VNYEhU5pNC43aF-1" source="A-rtP3VNYEhU5pNC43aF-107" target="A-rtP3VNYEhU5pNC43aF-2">
          <mxGeometry relative="1" as="geometry">
            <mxPoint x="3050" y="-200" as="targetPoint" />
            <Array as="points">
              <mxPoint x="3481" y="-240" />
              <mxPoint x="733" y="-240" />
            </Array>
          </mxGeometry>
        </mxCell>
        <mxCell id="A-rtP3VNYEhU5pNC43aF-107" value="top画面" style="text;html=1;points=[];align=left;verticalAlign=top;spacingTop=-4;fontSize=14;fontFamily=Verdana" vertex="1" parent="A-rtP3VNYEhU5pNC43aF-1">
          <mxGeometry x="3451" y="130" width="60" height="25" as="geometry" />
        </mxCell>
        <mxCell id="A-rtP3VNYEhU5pNC43aF-108" value="農作物管理" style="text;html=1;strokeColor=none;fillColor=none;align=center;verticalAlign=middle;whiteSpace=wrap;rounded=0;labelBackgroundColor=none;fontSize=20;fontStyle=1" vertex="1" parent="A-rtP3VNYEhU5pNC43aF-1">
          <mxGeometry x="2591" y="200" width="140" height="30" as="geometry" />
        </mxCell>
        <mxCell id="A-rtP3VNYEhU5pNC43aF-109" value="日付" style="text;html=1;strokeColor=none;fillColor=none;align=center;verticalAlign=middle;whiteSpace=wrap;rounded=0;labelBackgroundColor=none;fontSize=17;" vertex="1" parent="A-rtP3VNYEhU5pNC43aF-1">
          <mxGeometry x="2615" y="260" width="40" height="20" as="geometry" />
        </mxCell>
        <mxCell id="A-rtP3VNYEhU5pNC43aF-110" value="" style="rounded=0;whiteSpace=wrap;html=1;labelBackgroundColor=none;fontSize=17;" vertex="1" parent="A-rtP3VNYEhU5pNC43aF-1">
          <mxGeometry x="2691" y="255" width="170" height="30" as="geometry" />
        </mxCell>
        <mxCell id="A-rtP3VNYEhU5pNC43aF-111" value="作業内容" style="text;html=1;strokeColor=none;fillColor=none;align=center;verticalAlign=middle;whiteSpace=wrap;rounded=0;labelBackgroundColor=none;fontSize=17;" vertex="1" parent="A-rtP3VNYEhU5pNC43aF-1">
          <mxGeometry x="2593" y="360" width="90" height="20" as="geometry" />
        </mxCell>
        <mxCell id="A-rtP3VNYEhU5pNC43aF-112" value="" style="rounded=0;whiteSpace=wrap;html=1;labelBackgroundColor=none;fontSize=17;" vertex="1" parent="A-rtP3VNYEhU5pNC43aF-1">
          <mxGeometry x="2621" y="390" width="760" height="180" as="geometry" />
        </mxCell>
        <mxCell id="A-rtP3VNYEhU5pNC43aF-113" value="資材" style="text;html=1;strokeColor=none;fillColor=none;align=center;verticalAlign=middle;whiteSpace=wrap;rounded=0;labelBackgroundColor=none;fontSize=17;" vertex="1" parent="A-rtP3VNYEhU5pNC43aF-1">
          <mxGeometry x="2617" y="590" width="40" height="20" as="geometry" />
        </mxCell>
        <mxCell id="A-rtP3VNYEhU5pNC43aF-114" value="" style="rounded=0;whiteSpace=wrap;html=1;labelBackgroundColor=none;fontSize=17;" vertex="1" parent="A-rtP3VNYEhU5pNC43aF-1">
          <mxGeometry x="2621" y="620" width="760" height="60" as="geometry" />
        </mxCell>
        <mxCell id="A-rtP3VNYEhU5pNC43aF-115" value="" style="rounded=0;whiteSpace=wrap;html=1;labelBackgroundColor=none;fontSize=17;" vertex="1" parent="A-rtP3VNYEhU5pNC43aF-1">
          <mxGeometry x="2691" y="305" width="170" height="30" as="geometry" />
        </mxCell>
        <mxCell id="A-rtP3VNYEhU5pNC43aF-116" value="作業時間" style="text;html=1;strokeColor=none;fillColor=none;align=center;verticalAlign=middle;whiteSpace=wrap;rounded=0;labelBackgroundColor=none;fontSize=17;" vertex="1" parent="A-rtP3VNYEhU5pNC43aF-1">
          <mxGeometry x="3001" y="260" width="85" height="20" as="geometry" />
        </mxCell>
        <mxCell id="A-rtP3VNYEhU5pNC43aF-117" value="" style="rounded=0;whiteSpace=wrap;html=1;labelBackgroundColor=none;fontSize=17;" vertex="1" parent="A-rtP3VNYEhU5pNC43aF-1">
          <mxGeometry x="3101" y="255" width="170" height="30" as="geometry" />
        </mxCell>
        <mxCell id="A-rtP3VNYEhU5pNC43aF-118" value="作業人数" style="text;html=1;strokeColor=none;fillColor=none;align=center;verticalAlign=middle;whiteSpace=wrap;rounded=0;labelBackgroundColor=none;fontSize=17;" vertex="1" parent="A-rtP3VNYEhU5pNC43aF-1">
          <mxGeometry x="2593" y="310" width="90" height="20" as="geometry" />
        </mxCell>
        <mxCell id="A-rtP3VNYEhU5pNC43aF-119" value="天気" style="text;html=1;strokeColor=none;fillColor=none;align=center;verticalAlign=middle;whiteSpace=wrap;rounded=0;labelBackgroundColor=none;fontSize=17;" vertex="1" parent="A-rtP3VNYEhU5pNC43aF-1">
          <mxGeometry x="3001" y="310" width="90" height="20" as="geometry" />
        </mxCell>
        <mxCell id="A-rtP3VNYEhU5pNC43aF-120" value="" style="rounded=0;whiteSpace=wrap;html=1;labelBackgroundColor=none;fontSize=17;" vertex="1" parent="A-rtP3VNYEhU5pNC43aF-1">
          <mxGeometry x="3101" y="305" width="170" height="30" as="geometry" />
        </mxCell>
        <mxCell id="A-rtP3VNYEhU5pNC43aF-121" value="コメント" style="text;html=1;strokeColor=none;fillColor=none;align=center;verticalAlign=middle;whiteSpace=wrap;rounded=0;labelBackgroundColor=none;fontSize=17;" vertex="1" parent="A-rtP3VNYEhU5pNC43aF-1">
          <mxGeometry x="2601" y="800" width="103" height="20" as="geometry" />
        </mxCell>
        <mxCell id="A-rtP3VNYEhU5pNC43aF-122" value="" style="rounded=0;whiteSpace=wrap;html=1;labelBackgroundColor=none;fontSize=17;" vertex="1" parent="A-rtP3VNYEhU5pNC43aF-1">
          <mxGeometry x="2621" y="830" width="760" height="100" as="geometry" />
        </mxCell>
        <mxCell id="A-rtP3VNYEhU5pNC43aF-123" style="edgeStyle=none;rounded=0;orthogonalLoop=1;jettySize=auto;html=1;entryX=0.426;entryY=1.002;entryDx=0;entryDy=0;entryPerimeter=0;" edge="1" parent="A-rtP3VNYEhU5pNC43aF-1" source="A-rtP3VNYEhU5pNC43aF-124" target="A-rtP3VNYEhU5pNC43aF-72">
          <mxGeometry relative="1" as="geometry">
            <mxPoint x="4650" y="1250" as="targetPoint" />
            <Array as="points">
              <mxPoint x="3332" y="1280" />
              <mxPoint x="4132" y="1280" />
            </Array>
          </mxGeometry>
        </mxCell>
        <mxCell id="A-rtP3VNYEhU5pNC43aF-124" value="編集" style="labelPosition=center;verticalLabelPosition=middle;align=center;html=1;shape=mxgraph.basic.shaded_button;dx=10;fillColor=#dae8fc;strokeColor=#6c8ebf;labelBackgroundColor=none;fontSize=17;" vertex="1" parent="A-rtP3VNYEhU5pNC43aF-1">
          <mxGeometry x="3281" y="980" width="100" height="60" as="geometry" />
        </mxCell>
        <mxCell id="A-rtP3VNYEhU5pNC43aF-125" value="数量" style="text;html=1;strokeColor=none;fillColor=none;align=center;verticalAlign=middle;whiteSpace=wrap;rounded=0;labelBackgroundColor=none;fontSize=17;" vertex="1" parent="A-rtP3VNYEhU5pNC43aF-1">
          <mxGeometry x="2618" y="700" width="40" height="40" as="geometry" />
        </mxCell>
        <mxCell id="A-rtP3VNYEhU5pNC43aF-126" value="" style="rounded=0;whiteSpace=wrap;html=1;labelBackgroundColor=none;fontSize=17;" vertex="1" parent="A-rtP3VNYEhU5pNC43aF-1">
          <mxGeometry x="2691" y="705" width="170" height="30" as="geometry" />
        </mxCell>
        <mxCell id="A-rtP3VNYEhU5pNC43aF-127" value="出荷単価" style="text;html=1;strokeColor=none;fillColor=none;align=center;verticalAlign=middle;whiteSpace=wrap;rounded=0;labelBackgroundColor=none;fontSize=17;" vertex="1" parent="A-rtP3VNYEhU5pNC43aF-1">
          <mxGeometry x="3001" y="715" width="90" height="20" as="geometry" />
        </mxCell>
        <mxCell id="A-rtP3VNYEhU5pNC43aF-128" value="" style="rounded=0;whiteSpace=wrap;html=1;labelBackgroundColor=none;fontSize=17;" vertex="1" parent="A-rtP3VNYEhU5pNC43aF-1">
          <mxGeometry x="3101" y="710" width="170" height="30" as="geometry" />
        </mxCell>
        <mxCell id="A-rtP3VNYEhU5pNC43aF-129" value="Text" style="text;html=1;strokeColor=none;fillColor=none;align=center;verticalAlign=middle;whiteSpace=wrap;rounded=0;fontSize=12;" vertex="1" parent="A-rtP3VNYEhU5pNC43aF-1">
          <mxGeometry x="2540" y="280" width="40" height="20" as="geometry" />
        </mxCell>
        <mxCell id="A-rtP3VNYEhU5pNC43aF-130" value="TOP" style="text;html=1;align=center;verticalAlign=middle;whiteSpace=wrap;rounded=0;fontSize=23;strokeColor=#000000;" vertex="1" parent="A-rtP3VNYEhU5pNC43aF-1">
          <mxGeometry x="30" y="-90" width="130" height="60" as="geometry" />
        </mxCell>
        <mxCell id="A-rtP3VNYEhU5pNC43aF-131" value="予定表" style="text;html=1;align=center;verticalAlign=middle;whiteSpace=wrap;rounded=0;fontSize=23;strokeColor=#000000;" vertex="1" parent="A-rtP3VNYEhU5pNC43aF-1">
          <mxGeometry x="1240" y="-90" width="130" height="60" as="geometry" />
        </mxCell>
        <mxCell id="A-rtP3VNYEhU5pNC43aF-132" value="実績管理" style="text;html=1;align=center;verticalAlign=middle;whiteSpace=wrap;rounded=0;fontSize=23;strokeColor=#000000;" vertex="1" parent="A-rtP3VNYEhU5pNC43aF-1">
          <mxGeometry x="2491" y="-90" width="130" height="60" as="geometry" />
        </mxCell>
        <mxCell id="A-rtP3VNYEhU5pNC43aF-133" value="予定実績入力" style="text;html=1;align=center;verticalAlign=middle;whiteSpace=wrap;rounded=0;fontSize=23;strokeColor=#000000;" vertex="1" parent="A-rtP3VNYEhU5pNC43aF-1">
          <mxGeometry x="3700" y="-90" width="160" height="60" as="geometry" />
        </mxCell>
        <mxCell id="A-rtP3VNYEhU5pNC43aF-134" value="/top" style="text;html=1;strokeColor=none;fillColor=none;align=center;verticalAlign=middle;whiteSpace=wrap;rounded=0;fontSize=26;" vertex="1" parent="A-rtP3VNYEhU5pNC43aF-1">
          <mxGeometry x="220" y="-80" width="80" height="40" as="geometry" />
        </mxCell>
        <mxCell id="A-rtP3VNYEhU5pNC43aF-135" value="/cherry" style="text;html=1;strokeColor=none;fillColor=none;align=center;verticalAlign=middle;whiteSpace=wrap;rounded=0;fontSize=26;" vertex="1" parent="A-rtP3VNYEhU5pNC43aF-1">
          <mxGeometry x="1410" y="-80" width="100" height="40" as="geometry" />
        </mxCell>
        <mxCell id="A-rtP3VNYEhU5pNC43aF-136" value="/s&lt;span style=&quot;color: rgb(32 , 33 , 36) ; font-family: inherit ; font-size: 28px ; text-align: left&quot;&gt;hinemus&lt;/span&gt;" style="text;html=1;strokeColor=none;fillColor=none;align=center;verticalAlign=middle;whiteSpace=wrap;rounded=0;fontSize=26;" vertex="1" parent="A-rtP3VNYEhU5pNC43aF-1">
          <mxGeometry x="1520" y="-80" width="190" height="40" as="geometry" />
        </mxCell>
        <mxCell id="A-rtP3VNYEhU5pNC43aF-137" value="/&lt;span style=&quot;color: rgb(32 , 33 , 36) ; font-family: inherit ; font-size: 28px ; text-align: left&quot;&gt;pear&lt;/span&gt;" style="text;html=1;strokeColor=none;fillColor=none;align=center;verticalAlign=middle;whiteSpace=wrap;rounded=0;fontSize=26;" vertex="1" parent="A-rtP3VNYEhU5pNC43aF-1">
          <mxGeometry x="1721" y="-80" width="100" height="40" as="geometry" />
        </mxCell>
        <mxCell id="A-rtP3VNYEhU5pNC43aF-138" value="/&lt;span style=&quot;color: rgb(32 , 33 , 36) ; font-family: inherit ; font-size: 28px ; text-align: left&quot;&gt;Aspara&lt;/span&gt;" style="text;html=1;strokeColor=none;fillColor=none;align=center;verticalAlign=middle;whiteSpace=wrap;rounded=0;fontSize=26;" vertex="1" parent="A-rtP3VNYEhU5pNC43aF-1">
          <mxGeometry x="1840" y="-80" width="160" height="40" as="geometry" />
        </mxCell>
        <mxCell id="A-rtP3VNYEhU5pNC43aF-139" value="/cherry/manage" style="text;html=1;strokeColor=none;fillColor=none;align=center;verticalAlign=middle;whiteSpace=wrap;rounded=0;fontSize=26;" vertex="1" parent="A-rtP3VNYEhU5pNC43aF-1">
          <mxGeometry x="2650" y="-80" width="200" height="40" as="geometry" />
        </mxCell>
        <mxCell id="A-rtP3VNYEhU5pNC43aF-140" value="/s&lt;span style=&quot;color: rgb(32 , 33 , 36) ; font-family: inherit ; font-size: 28px ; text-align: left&quot;&gt;hinemuscat&lt;/span&gt;/manage" style="text;html=1;strokeColor=none;fillColor=none;align=center;verticalAlign=middle;whiteSpace=wrap;rounded=0;fontSize=26;" vertex="1" parent="A-rtP3VNYEhU5pNC43aF-1">
          <mxGeometry x="2851.5" y="-80" width="299" height="40" as="geometry" />
        </mxCell>
        <mxCell id="A-rtP3VNYEhU5pNC43aF-141" value="/&lt;span style=&quot;color: rgb(32 , 33 , 36) ; font-family: inherit ; font-size: 28px ; text-align: left&quot;&gt;pear&lt;/span&gt;/manage" style="text;html=1;strokeColor=none;fillColor=none;align=center;verticalAlign=middle;whiteSpace=wrap;rounded=0;fontSize=26;" vertex="1" parent="A-rtP3VNYEhU5pNC43aF-1">
          <mxGeometry x="3158" y="-80" width="150" height="40" as="geometry" />
        </mxCell>
        <mxCell id="A-rtP3VNYEhU5pNC43aF-142" value="/&lt;span style=&quot;color: rgb(32 , 33 , 36) ; font-family: inherit ; font-size: 28px ; text-align: left&quot;&gt;Asparagus&lt;/span&gt;/manage" style="text;html=1;strokeColor=none;fillColor=none;align=center;verticalAlign=middle;whiteSpace=wrap;rounded=0;fontSize=26;" vertex="1" parent="A-rtP3VNYEhU5pNC43aF-1">
          <mxGeometry x="3331" y="-80" width="249" height="40" as="geometry" />
        </mxCell>
        <mxCell id="A-rtP3VNYEhU5pNC43aF-143" value="/cherry/input" style="text;html=1;strokeColor=none;fillColor=none;align=center;verticalAlign=middle;whiteSpace=wrap;rounded=0;fontSize=26;" vertex="1" parent="A-rtP3VNYEhU5pNC43aF-1">
          <mxGeometry x="3905" y="-80" width="155" height="40" as="geometry" />
        </mxCell>
        <mxCell id="A-rtP3VNYEhU5pNC43aF-144" value="/s&lt;span style=&quot;color: rgb(32 , 33 , 36) ; font-family: inherit ; font-size: 28px ; text-align: left&quot;&gt;hinemus/input&lt;/span&gt;" style="text;html=1;strokeColor=none;fillColor=none;align=center;verticalAlign=middle;whiteSpace=wrap;rounded=0;fontSize=26;" vertex="1" parent="A-rtP3VNYEhU5pNC43aF-1">
          <mxGeometry x="4070" y="-80" width="240" height="40" as="geometry" />
        </mxCell>
        <mxCell id="A-rtP3VNYEhU5pNC43aF-145" value="/&lt;span style=&quot;color: rgb(32 , 33 , 36) ; font-family: inherit ; font-size: 28px ; text-align: left&quot;&gt;pear/input&lt;/span&gt;" style="text;html=1;strokeColor=none;fillColor=none;align=center;verticalAlign=middle;whiteSpace=wrap;rounded=0;fontSize=26;" vertex="1" parent="A-rtP3VNYEhU5pNC43aF-1">
          <mxGeometry x="4330" y="-80" width="140" height="40" as="geometry" />
        </mxCell>
        <mxCell id="A-rtP3VNYEhU5pNC43aF-146" value="/&lt;span style=&quot;color: rgb(32 , 33 , 36) ; font-family: inherit ; font-size: 28px ; text-align: left&quot;&gt;Aspara/input&lt;/span&gt;" style="text;html=1;strokeColor=none;fillColor=none;align=center;verticalAlign=middle;whiteSpace=wrap;rounded=0;fontSize=26;" vertex="1" parent="A-rtP3VNYEhU5pNC43aF-1">
          <mxGeometry x="4470" y="-80" width="190" height="40" as="geometry" />
        </mxCell>
      </root>
    </mxGraphModel>
  </diagram>
</mxfile>
